<svg version="1.1" id="Layer_1" xmlns="http://www.w3.org/2000/svg" xmlns:xlink="http://www.w3.org/1999/xlink" x="0px" y="0px"
	 width="100%" viewBox="0 0 412 376" enable-background="new 0 0 412 376" xml:space="preserve">
<path fill="#5F6A59" opacity="1.000000" stroke="none" 
	d="
M413.000000,296.000000 
	C413.000000,322.992279 413.000000,349.984528 413.000000,376.982605 
	C275.713715,376.988403 138.427444,376.988403 1.070583,376.988403 
	C1.070583,251.749649 1.070583,126.499237 1.070583,1.124415 
	C138.210968,1.124415 275.422089,1.124415 413.000000,1.124415 
	C413.000000,80.687721 413.000000,160.376007 412.709961,240.604614 
	C411.650787,241.336197 410.881653,241.527451 409.908020,241.742828 
	C409.703522,241.766953 409.314056,241.900665 409.317535,241.458435 
	C409.169983,238.358566 409.018951,235.700958 408.969879,232.632416 
	C409.092285,230.812576 409.112701,229.403656 409.253632,227.627960 
	C410.276367,222.965317 409.998077,218.984283 406.241150,215.605133 
	C406.001251,214.908600 405.864990,214.510330 405.802368,213.765167 
	C405.890411,212.946335 405.904877,212.474365 406.151062,211.877365 
	C406.713654,211.397171 407.378082,210.982758 407.327057,210.695419 
	C405.670197,201.368622 400.562469,193.785355 394.802856,186.520020 
	C394.635742,186.586365 394.352264,186.807648 394.322052,186.448669 
	C393.358246,184.457199 392.424622,182.824707 391.608582,180.899719 
	C391.458832,174.426208 387.821686,170.324234 383.068115,166.541199 
	C381.969971,165.481064 381.022522,164.697815 379.909485,163.666809 
	C379.176178,162.605103 378.608459,161.791138 377.946106,160.625473 
	C374.807678,150.274536 365.700470,147.587830 357.416687,143.477478 
	C356.758118,143.258682 356.383789,143.127731 355.850098,142.703003 
	C347.998108,135.703430 338.920197,132.671463 328.495605,132.237396 
	C327.465179,132.014709 326.783417,131.841171 325.973816,131.518753 
	C325.229340,131.248703 324.612671,131.127563 323.692322,130.961700 
	C322.983612,130.860809 322.578583,130.804626 321.910339,130.511688 
	C319.805664,129.612839 318.006683,128.570358 316.114899,128.359283 
	C310.213593,127.700897 304.245514,126.768852 298.364868,127.085495 
	C294.005096,127.320259 288.889069,127.162697 285.708191,131.876648 
	C285.506439,131.982635 285.099426,132.187836 284.753479,132.123413 
	C283.939209,132.066147 283.470825,132.073318 282.689880,132.015594 
	C269.679413,132.545639 259.646881,137.179291 255.011734,150.004639 
	C255.003036,150.004562 255.008041,150.018219 254.734833,150.160553 
	C253.827545,151.296509 253.193451,152.290131 252.520462,153.610947 
	C252.466263,154.376556 252.450958,154.814957 252.246613,155.324829 
	C252.057541,155.396286 251.672028,155.517822 251.360016,155.603500 
	C250.384735,156.470413 249.721481,157.251648 249.008881,158.016983 
	C248.959518,158.001099 248.870895,157.947235 248.568512,158.090515 
	C245.641113,162.289169 242.106644,166.038696 240.614792,170.475098 
	C238.623276,176.397400 238.218033,182.853104 237.157196,189.472626 
	C237.149628,190.913773 237.116379,191.962021 236.835205,193.289032 
	C236.083359,195.792053 235.188110,198.009018 235.146408,200.241913 
	C235.001816,207.985168 236.371628,216.067551 229.094131,221.798889 
	C228.739471,222.078186 228.577957,222.654572 228.420273,223.124115 
	C226.865219,227.754471 223.903839,230.972778 219.621536,233.481979 
	C214.645172,236.397842 214.294662,239.918671 216.996445,244.922836 
	C220.288971,251.021194 224.509766,255.289642 232.026733,255.466110 
	C235.739090,255.553284 238.370819,257.967224 238.627930,261.798859 
	C239.413803,273.511322 240.064484,285.235870 240.539337,296.964966 
	C240.804474,303.514008 240.616455,310.081421 240.659180,316.960571 
	C240.726746,318.862640 240.767792,320.444641 240.586578,322.305603 
	C240.436493,327.178925 240.322174,331.790558 240.743790,336.352631 
	C240.824646,337.227600 243.013245,337.907745 244.497314,338.793396 
	C245.250717,339.232300 245.736252,339.555634 246.196350,340.203796 
	C246.244293,341.169647 246.317688,341.810699 246.363556,342.874939 
	C246.829193,349.333466 248.587936,350.531494 254.247559,348.480286 
	C254.474503,348.427887 254.900803,348.240021 255.187347,348.399841 
	C257.200378,349.558624 258.926849,350.557556 260.564240,351.757263 
	C260.475159,351.958038 260.360077,352.381958 260.369049,352.670166 
	C262.456696,361.473145 264.174561,362.767456 272.580658,362.319275 
	C274.061951,362.240326 275.583435,362.271851 277.042480,362.515381 
	C293.007538,365.180359 308.999481,365.665955 325.141479,364.125488 
	C330.859741,363.579773 335.247498,361.479889 339.268066,357.479736 
	C339.802124,357.435791 340.095276,357.498993 340.833557,357.656616 
	C350.158539,355.634155 359.103577,353.889038 367.864258,351.474884 
	C378.151337,348.640106 382.881744,340.788239 384.903625,330.893555 
	C384.931244,330.904907 384.879730,330.935120 385.120453,330.765991 
	C385.861908,329.999695 386.362671,329.402588 386.821381,328.823029 
	C386.779327,328.840576 386.740326,328.758209 387.098755,328.739563 
	C396.492340,327.936279 400.363647,322.259918 396.962769,314.564453 
	C398.315186,311.798035 399.583038,309.374359 401.218750,306.900909 
	C403.178864,305.588165 404.887939,304.445190 406.336517,303.034668 
	C408.648712,300.783295 410.787750,298.354065 413.000000,296.000000 
M212.845627,194.412399 
	C218.409836,190.487015 224.177734,186.809387 229.423447,182.496582 
	C231.167572,181.062668 232.627884,177.881363 232.385803,175.702454 
	C231.718689,169.697586 229.480133,164.473175 224.171082,160.402847 
	C217.804718,155.521927 213.912735,148.598099 213.868225,140.262650 
	C213.824692,132.112289 214.474838,123.956238 214.358353,115.809288 
	C214.315094,112.784676 213.316406,109.628670 212.124390,106.797424 
	C210.008087,101.770866 207.464432,96.919731 204.998352,92.046432 
	C203.216629,88.525558 201.713791,84.734436 199.291672,81.697906 
	C195.908920,77.457031 190.972061,74.310020 188.173126,69.784073 
	C184.183182,63.332211 178.731995,60.316868 171.697906,59.061764 
	C170.087860,58.774483 168.539200,58.008171 167.029480,57.315784 
	C156.986038,52.709660 146.609314,51.251350 135.495377,52.084469 
	C116.724060,53.491592 98.529289,56.802555 82.078888,66.233238 
	C75.422234,70.049370 66.931648,72.059135 63.973274,80.810883 
	C63.585728,81.957359 61.691647,82.593231 60.497719,83.468834 
	C59.174221,84.439461 57.573433,85.188362 56.578415,86.424294 
	C51.390251,92.868591 46.226707,99.341805 41.328735,106.006432 
	C39.182159,108.927254 37.113598,112.140518 36.006474,115.545151 
	C32.940109,124.974846 30.132298,134.508408 27.721891,144.126144 
	C25.220808,154.105667 22.401970,164.141129 21.379028,174.318680 
	C20.284916,185.204285 20.595551,196.318726 21.306652,207.267456 
	C21.783766,214.613495 23.527538,221.991150 25.612551,229.087891 
	C27.845446,236.688049 31.862186,243.793259 33.799934,251.443848 
	C36.414280,261.765808 41.971851,269.395233 50.711697,275.125244 
	C52.742260,276.456512 54.271709,278.539032 56.084232,280.219238 
	C58.464497,282.425720 60.812603,284.679565 63.327187,286.725403 
	C66.737953,289.500336 70.185745,292.256989 73.825928,294.712769 
	C76.110207,296.253784 78.661507,297.642303 81.294533,298.374725 
	C87.660904,300.145630 94.199883,301.293396 100.572952,303.043213 
	C129.287460,310.927399 157.656204,310.438049 185.833755,300.347473 
	C191.021683,298.489655 195.813095,296.759552 198.302078,291.398804 
	C198.631912,290.688416 199.328827,289.991974 200.031494,289.635223 
	C207.846115,285.667328 208.961441,278.329712 208.844757,270.885223 
	C208.725601,263.283356 207.093079,255.698837 207.065613,248.103317 
	C207.020569,235.646393 207.694687,223.185120 208.162750,210.729324 
	C208.281265,207.574997 208.463943,204.362900 209.184067,201.311127 
	C209.721603,199.033127 211.171387,196.970367 212.845627,194.412399 
z"/>
<path fill="#706E5B" opacity="1.000000" stroke="none" 
	d="
M413.000000,295.600006 
	C410.787750,298.354065 408.648712,300.783295 406.336517,303.034668 
	C404.887939,304.445190 403.178864,305.588165 401.261627,306.528198 
	C401.329651,305.123596 401.731689,304.045166 402.114258,302.959839 
	C405.107147,294.468445 409.626862,286.360596 408.723755,276.459106 
	C408.849213,274.357513 408.925446,272.673676 409.185577,270.709534 
	C410.579651,268.952850 411.789825,267.476440 413.000000,266.000000 
	C413.000000,272.354401 413.000000,278.708801 412.723999,285.646729 
	C409.293579,288.472900 411.058289,290.244934 413.000000,292.000000 
	C413.000000,293.066681 413.000000,294.133331 413.000000,295.600006 
z"/>
<path fill="#A79883" opacity="1.000000" stroke="none" 
	d="
M413.000000,265.555847 
	C411.789825,267.476440 410.579651,268.952850 409.038055,270.327515 
	C408.909119,260.784058 409.111603,251.342361 409.314087,241.900665 
	C409.314056,241.900665 409.703522,241.766953 409.961700,242.176086 
	C410.479156,244.999146 410.596344,247.439240 411.035004,249.820145 
	C411.542358,252.573959 412.332611,255.275665 413.000000,258.000000 
	C413.000000,260.370575 413.000000,262.741119 413.000000,265.555847 
z"/>
<path fill="#7F7965" opacity="1.000000" stroke="none" 
	d="
M413.000000,257.532410 
	C412.332611,255.275665 411.542358,252.573959 411.035004,249.820145 
	C410.596344,247.439240 410.479156,244.999146 410.166199,242.151947 
	C410.881653,241.527451 411.650787,241.336197 412.709961,241.072479 
	C413.000000,246.354935 413.000000,251.709854 413.000000,257.532410 
z"/>
<path fill="#5F6A59" opacity="1.000000" stroke="none" 
	d="
M413.000000,291.571533 
	C411.058289,290.244934 409.293579,288.472900 412.723999,286.115112 
	C413.000000,287.714355 413.000000,289.428711 413.000000,291.571533 
z"/>
<path fill="#CBB19B" opacity="1.000000" stroke="none" 
	d="
M409.317566,241.458435 
	C409.111603,251.342361 408.909119,260.784058 408.854156,270.607788 
	C408.925446,272.673676 408.849213,274.357513 408.501404,276.708069 
	C407.320770,279.509308 405.648682,281.640839 405.640442,283.778809 
	C405.611450,291.287201 401.953339,297.497803 399.183075,304.034821 
	C393.134247,318.308350 383.968506,330.306000 371.390076,339.285736 
	C355.768829,350.437683 338.166992,356.314789 318.952301,358.030762 
	C300.440521,359.684052 282.405945,358.841888 264.945862,351.892883 
	C263.672150,351.385956 262.091339,351.650574 260.653320,351.556488 
	C258.926849,350.557556 257.200378,349.558624 255.031738,348.105438 
	C253.346710,346.814911 252.103851,345.978668 250.661667,344.942810 
	C249.947495,344.194794 249.432648,343.646423 248.843872,342.789368 
	C247.920563,341.613434 247.071167,340.746185 246.221786,339.878937 
	C245.736252,339.555634 245.250717,339.232300 244.494568,338.421967 
	C243.996368,336.716553 243.768768,335.498199 243.629333,333.824554 
	C243.801941,330.914337 243.886398,328.459381 244.081451,325.744324 
	C244.330368,324.939392 244.468674,324.394623 244.612762,323.399048 
	C244.223648,318.928131 243.828735,314.908051 243.460052,310.451141 
	C243.643021,307.677795 243.799744,305.341278 244.125702,302.626831 
	C243.852890,287.489288 243.527405,272.724548 242.891129,257.973267 
	C242.720825,254.025223 240.353271,251.393036 236.272705,250.183640 
	C232.947403,249.198059 229.857269,247.443283 226.611115,246.160538 
	C221.901382,244.299469 221.233078,242.549240 224.282181,238.377853 
	C227.916428,233.405930 231.609299,228.450455 235.642212,223.805099 
	C238.589767,220.409912 239.429153,216.932175 239.362259,212.430908 
	C239.239471,204.167282 239.077240,195.639603 240.909439,187.677170 
	C243.309525,177.246918 247.626709,167.257782 251.243408,156.830078 
	C251.469040,156.226776 251.570526,155.872299 251.672028,155.517822 
	C251.672028,155.517822 252.057541,155.396286 252.551651,155.215637 
	C255.729202,152.051285 258.412628,149.067581 261.264771,145.929749 
	C261.654449,145.565659 261.866577,145.347076 262.409943,145.024414 
	C267.904388,141.693573 273.058777,138.458237 278.511475,135.195618 
	C279.207153,135.127579 279.604523,135.086807 280.276978,135.116241 
	C282.067871,134.186905 283.583649,133.187378 285.099426,132.187836 
	C285.099426,132.187836 285.506439,131.982635 286.045593,131.981110 
	C287.052307,132.029556 287.519897,132.079514 288.378998,132.248260 
	C300.517273,132.253510 312.264008,132.139954 324.364716,132.000580 
	C325.179657,131.872375 325.640656,131.770004 326.101654,131.667648 
	C326.783417,131.841171 327.465179,132.014709 328.484802,132.441574 
	C328.822632,132.694916 328.898376,133.096817 329.035797,133.350189 
	C330.449402,134.087112 331.725586,134.570648 333.348267,135.089661 
	C334.388000,135.180695 335.081177,135.236267 336.003448,135.535645 
	C339.009552,137.151566 341.821075,138.458572 344.556915,139.908417 
	C351.780029,143.736267 358.970306,147.626099 366.399445,151.689056 
	C367.095612,152.252914 367.566010,152.618973 368.162354,153.296295 
	C372.469635,157.778122 376.650909,161.948685 380.846924,166.130737 
	C380.861694,166.142242 380.897827,166.141159 380.994507,166.427063 
	C381.698883,167.503082 382.306549,168.293213 383.025940,169.263794 
	C383.137726,169.444260 383.370056,169.799576 383.454041,170.096039 
	C384.352570,171.268600 385.167084,172.144714 386.160858,173.283981 
	C386.773193,174.277054 387.206299,175.006958 387.676514,176.040085 
	C388.447601,177.260071 389.181610,178.176834 390.036560,179.331039 
	C390.601990,180.109726 391.046509,180.650970 391.490997,181.192215 
	C392.424622,182.824707 393.358246,184.457199 394.189117,186.731079 
	C395.373962,189.926117 396.661530,192.479752 398.122498,195.227692 
	C398.752106,196.520782 399.208313,197.619583 399.581818,199.137787 
	C399.651672,205.232300 401.083466,210.359894 405.728760,214.112061 
	C405.864990,214.510330 406.001251,214.908600 406.117004,215.934967 
	C406.018127,217.025681 405.939728,217.488281 405.745483,218.326843 
	C404.603912,223.958359 405.693542,228.736221 408.867889,233.043335 
	C409.018951,235.700958 409.169983,238.358566 409.317566,241.458435 
M397.870270,277.765259 
	C401.585632,274.399750 400.970612,270.230530 400.085876,265.228027 
	C400.147644,264.192810 400.209412,263.157623 400.615814,261.718750 
	C400.503784,260.437225 400.391785,259.155670 400.246124,256.983765 
	C400.213898,254.001419 400.181702,251.019058 400.411865,247.263397 
	C400.475098,243.789825 401.112671,240.211380 400.501007,236.861023 
	C398.000488,223.165070 395.189178,209.509293 389.091766,196.837189 
	C388.193420,194.970184 386.602631,193.436340 385.189880,191.004120 
	C381.820007,185.651550 378.450134,180.298965 374.734100,174.615463 
	C374.506409,174.391510 374.285767,174.160828 373.965576,173.207504 
	C370.675018,166.021454 365.507843,160.791595 357.584595,157.570312 
	C356.758606,157.005707 355.932617,156.441086 354.903381,155.224243 
	C353.732697,154.131805 352.745850,152.611465 351.361359,152.016800 
	C342.744232,148.315613 334.239929,144.129486 325.285950,141.517548 
	C319.872314,139.938370 313.715271,140.907623 307.017151,140.786713 
	C304.670990,140.818649 302.324860,140.850586 299.215332,140.612442 
	C294.792358,140.826294 290.072479,140.114304 285.999725,141.420334 
	C271.328918,146.124771 260.965240,156.323761 254.155899,169.800339 
	C251.686356,174.687897 251.352478,180.654572 250.098999,186.750305 
	C250.145279,187.372299 250.191574,187.994278 249.901276,188.686691 
	C249.901276,188.686691 249.595444,188.845016 249.111282,189.280029 
	C244.507660,197.462509 245.929245,205.924667 248.034683,214.384888 
	C248.201538,215.055298 249.141617,215.533295 249.834076,216.805222 
	C249.828171,217.517090 249.822266,218.228973 249.235840,219.241867 
	C245.637985,223.958801 242.025345,228.664551 238.446014,233.395493 
	C233.804535,239.530289 234.430908,241.544266 241.894760,243.676117 
	C245.965118,244.838684 248.374924,247.104675 249.292496,251.397873 
	C249.731949,253.454056 251.468994,255.232925 252.695114,257.937286 
	C252.724228,259.274078 252.753342,260.610901 252.523529,262.732208 
	C252.393646,263.715698 252.151154,264.699127 252.150436,265.682709 
	C252.134995,286.869568 252.097366,308.056641 252.186050,329.243134 
	C252.209457,334.835663 255.656006,338.437744 262.291443,340.370270 
	C262.526581,340.589539 262.752625,340.817810 263.311249,341.631348 
	C268.115936,343.738464 272.742493,346.522430 277.754578,347.841431 
	C307.357513,355.631866 335.602600,351.595612 361.910461,336.215027 
	C368.156281,332.563416 372.917786,326.372986 378.882629,320.951202 
	C387.179779,313.507660 391.127197,303.430206 394.947205,293.438843 
	C396.535950,289.283356 396.471588,284.495819 397.193237,279.377319 
	C397.232330,278.966125 397.271454,278.554962 397.870270,277.765259 
z"/>
<path fill="#7C7664" opacity="1.000000" stroke="none" 
	d="
M212.530273,194.612061 
	C211.171387,196.970367 209.721603,199.033127 209.184067,201.311127 
	C208.463943,204.362900 208.281265,207.574997 208.162750,210.729324 
	C207.694687,223.185120 207.020569,235.646393 207.065613,248.103317 
	C207.093079,255.698837 208.725601,263.283356 208.844757,270.885223 
	C208.961441,278.329712 207.846115,285.667328 200.031494,289.635223 
	C199.328827,289.991974 198.631912,290.688416 198.302078,291.398804 
	C195.813095,296.759552 191.021683,298.489655 185.833755,300.347473 
	C157.656204,310.438049 129.287460,310.927399 100.572952,303.043213 
	C94.199883,301.293396 87.660904,300.145630 81.294533,298.374725 
	C78.661507,297.642303 76.110207,296.253784 73.825928,294.712769 
	C70.185745,292.256989 66.737953,289.500336 63.327187,286.725403 
	C60.812603,284.679565 58.464497,282.425720 56.084232,280.219238 
	C54.271709,278.539032 52.742260,276.456512 50.711697,275.125244 
	C41.971851,269.395233 36.414280,261.765808 33.799934,251.443848 
	C31.862186,243.793259 27.845446,236.688049 25.612551,229.087891 
	C23.527538,221.991150 21.783766,214.613495 21.306652,207.267456 
	C20.595551,196.318726 20.284916,185.204285 21.379028,174.318680 
	C22.401970,164.141129 25.220808,154.105667 27.721891,144.126144 
	C30.132298,134.508408 32.940109,124.974846 36.006474,115.545151 
	C37.113598,112.140518 39.182159,108.927254 41.328735,106.006432 
	C46.226707,99.341805 51.390251,92.868591 56.578415,86.424294 
	C57.573433,85.188362 59.174221,84.439461 60.497719,83.468834 
	C61.691647,82.593231 63.585728,81.957359 63.973274,80.810883 
	C66.931648,72.059135 75.422234,70.049370 82.078888,66.233238 
	C98.529289,56.802555 116.724060,53.491592 135.495377,52.084469 
	C146.609314,51.251350 156.986038,52.709660 167.029480,57.315784 
	C168.539200,58.008171 170.087860,58.774483 171.697906,59.061764 
	C178.731995,60.316868 184.183182,63.332211 188.173126,69.784073 
	C190.972061,74.310020 195.908920,77.457031 199.291672,81.697906 
	C201.713791,84.734436 203.216629,88.525558 204.998352,92.046432 
	C207.464432,96.919731 210.008087,101.770866 212.124390,106.797424 
	C213.316406,109.628670 214.315094,112.784676 214.358353,115.809288 
	C214.474838,123.956238 213.824692,132.112289 213.868225,140.262650 
	C213.912735,148.598099 217.804718,155.521927 224.171082,160.402847 
	C229.480133,164.473175 231.718689,169.697586 232.385803,175.702454 
	C232.627884,177.881363 231.167572,181.062668 229.423447,182.496582 
	C224.177734,186.809387 218.409836,190.487015 212.530273,194.612061 
M210.853867,131.143524 
	C209.690567,122.352394 209.473953,113.296501 207.109375,104.841316 
	C204.517593,95.573700 200.754501,86.404701 193.001755,79.140190 
	C192.668991,78.759094 192.336243,78.377998 191.689407,77.408058 
	C178.740707,61.124336 160.495468,55.490948 141.062988,54.399067 
	C124.529518,53.470074 108.382050,57.753929 93.119667,64.393494 
	C80.131378,70.043762 69.025192,78.418274 59.527023,88.927490 
	C49.155918,100.402557 41.595013,113.507477 35.760498,127.830414 
	C29.882843,142.259247 25.451731,156.952881 24.465723,172.537201 
	C22.890673,197.431671 23.199276,222.112564 34.207462,245.326965 
	C39.580070,256.656921 45.853210,267.370789 55.917446,275.826996 
	C56.080265,276.018341 56.274975,276.168274 56.848991,276.871918 
	C58.890053,278.805420 60.773167,280.946594 62.997982,282.638458 
	C76.710419,293.065979 92.231743,299.404510 109.843918,302.855957 
	C110.898972,302.895660 111.954025,302.935364 113.705124,303.312744 
	C123.143410,304.120605 132.581696,304.928467 142.863571,305.838837 
	C144.555649,305.773102 146.247726,305.707367 148.769547,305.746063 
	C154.177124,304.826355 159.584702,303.906647 165.636002,302.967072 
	C166.058990,302.896698 166.481995,302.826324 167.670380,302.740326 
	C173.328171,300.871185 179.159042,299.404297 184.611694,297.058319 
	C201.794571,289.665466 208.644196,277.914764 206.738892,261.176208 
	C205.652069,251.628204 205.343414,241.984573 204.887115,232.374390 
	C204.595901,226.240921 204.675522,220.089859 204.707169,213.096283 
	C204.765640,211.380539 204.824097,209.664780 205.274963,207.299057 
	C206.027817,203.229904 207.027390,199.187103 207.465820,195.084351 
	C207.927032,190.768372 209.897964,187.982162 213.991211,186.590134 
	C217.769928,185.305069 221.563950,184.042831 225.264145,182.554092 
	C230.887665,180.291489 231.681458,177.421021 228.096451,172.626297 
	C226.004288,169.828140 223.940002,166.973770 221.549637,164.440552 
	C214.234024,156.687790 208.603394,148.377899 210.989532,136.924072 
	C211.117554,136.309601 210.842316,135.611099 210.810593,134.231583 
	C210.773560,133.511246 210.736511,132.790909 210.853867,131.143524 
z"/>
<path fill="#A79883" opacity="1.000000" stroke="none" 
	d="
M260.564240,351.757263 
	C262.091339,351.650574 263.672150,351.385956 264.945862,351.892883 
	C282.405945,358.841888 300.440521,359.684052 318.952301,358.030762 
	C338.166992,356.314789 355.768829,350.437683 371.390076,339.285736 
	C383.968506,330.306000 393.134247,318.308350 399.183075,304.034821 
	C401.953339,297.497803 405.611450,291.287201 405.640442,283.778809 
	C405.648682,281.640839 407.320770,279.509308 408.452209,277.125854 
	C409.626862,286.360596 405.107147,294.468445 402.114258,302.959839 
	C401.731689,304.045166 401.329651,305.123596 400.893738,306.577942 
	C399.583038,309.374359 398.315186,311.798035 396.699280,314.774902 
	C393.147583,319.804810 389.943970,324.281525 386.740326,328.758209 
	C386.740326,328.758209 386.779327,328.840576 386.555267,328.961212 
	C385.847382,329.699615 385.363556,330.317352 384.879730,330.935120 
	C384.879730,330.935120 384.931244,330.904907 384.615906,331.059631 
	C372.740662,342.319611 359.561920,350.695404 344.080658,355.269714 
	C342.729187,355.669067 341.602905,356.830566 340.372040,357.638031 
	C340.095276,357.498993 339.802124,357.435791 338.930237,357.444458 
	C324.396423,361.009949 310.149536,360.856262 295.873260,360.862274 
	C283.291107,360.867554 271.791626,356.900482 260.360077,352.381958 
	C260.360077,352.381958 260.475159,351.958038 260.564240,351.757263 
z"/>
<path fill="#706E5B" opacity="1.000000" stroke="none" 
	d="
M243.956451,303.004730 
	C243.799744,305.341278 243.643021,307.677795 243.264099,310.691193 
	C242.238815,313.125549 241.435730,314.883026 240.632645,316.640533 
	C240.616455,310.081421 240.804474,303.514008 240.539337,296.964966 
	C240.064484,285.235870 239.413803,273.511322 238.627930,261.798859 
	C238.370819,257.967224 235.739090,255.553284 232.026733,255.466110 
	C224.509766,255.289642 220.288971,251.021194 216.996445,244.922836 
	C214.294662,239.918671 214.645172,236.397842 219.621536,233.481979 
	C223.903839,230.972778 226.865219,227.754471 228.420273,223.124115 
	C228.577957,222.654572 228.739471,222.078186 229.094131,221.798889 
	C236.371628,216.067551 235.001816,207.985168 235.146408,200.241913 
	C235.188110,198.009018 236.083359,195.792053 236.878983,193.755402 
	C237.300049,200.763428 237.679092,207.593109 237.425247,214.399216 
	C237.334747,216.825928 236.152664,219.513260 234.702789,221.531204 
	C230.435638,227.470291 225.695511,233.066940 221.314499,238.927673 
	C218.296051,242.965591 219.060165,245.381195 223.779922,247.341293 
	C226.077240,248.295380 228.728409,248.572845 230.809875,249.832993 
	C234.540131,252.091339 240.291504,252.193298 240.721390,258.322357 
	C241.592560,270.743530 242.441528,283.166199 243.316589,295.587067 
	C243.490982,298.062378 243.741196,300.532318 243.956451,303.004730 
z"/>
<path fill="#A29480" opacity="1.000000" stroke="none" 
	d="
M244.125687,302.626831 
	C243.741196,300.532318 243.490982,298.062378 243.316589,295.587067 
	C242.441528,283.166199 241.592560,270.743530 240.721390,258.322357 
	C240.291504,252.193298 234.540131,252.091339 230.809875,249.832993 
	C228.728409,248.572845 226.077240,248.295380 223.779922,247.341293 
	C219.060165,245.381195 218.296051,242.965591 221.314499,238.927673 
	C225.695511,233.066940 230.435638,227.470291 234.702789,221.531204 
	C236.152664,219.513260 237.334747,216.825928 237.425247,214.399216 
	C237.679092,207.593109 237.300049,200.763428 237.126892,193.476654 
	C237.116379,191.962021 237.149628,190.913773 237.308472,189.140350 
	C241.246353,178.259186 245.058624,168.103210 248.870895,157.947235 
	C248.870895,157.947235 248.959518,158.001099 249.262482,157.889984 
	C250.083389,157.545547 250.601334,157.312225 251.119278,157.078918 
	C247.626709,167.257782 243.309525,177.246918 240.909439,187.677170 
	C239.077240,195.639603 239.239471,204.167282 239.362259,212.430908 
	C239.429153,216.932175 238.589767,220.409912 235.642212,223.805099 
	C231.609299,228.450455 227.916428,233.405930 224.282181,238.377853 
	C221.233078,242.549240 221.901382,244.299469 226.611115,246.160538 
	C229.857269,247.443283 232.947403,249.198059 236.272705,250.183640 
	C240.353271,251.393036 242.720825,254.025223 242.891129,257.973267 
	C243.527405,272.724548 243.852890,287.489288 244.125687,302.626831 
z"/>
<path fill="#706E5B" opacity="1.000000" stroke="none" 
	d="
M260.369049,352.670166 
	C271.791626,356.900482 283.291107,360.867554 295.873260,360.862274 
	C310.149536,360.856262 324.396423,361.009949 338.705658,357.475708 
	C335.247498,361.479889 330.859741,363.579773 325.141479,364.125488 
	C308.999481,365.665955 293.007538,365.180359 277.042480,362.515381 
	C275.583435,362.271851 274.061951,362.240326 272.580658,362.319275 
	C264.174561,362.767456 262.456696,361.473145 260.369049,352.670166 
z"/>
<path fill="#706E5B" opacity="1.000000" stroke="none" 
	d="
M340.833557,357.656616 
	C341.602905,356.830566 342.729187,355.669067 344.080658,355.269714 
	C359.561920,350.695404 372.740662,342.319611 384.588257,331.048279 
	C382.881744,340.788239 378.151337,348.640106 367.864258,351.474884 
	C359.103577,353.889038 350.158539,355.634155 340.833557,357.656616 
z"/>
<path fill="#857F6A" opacity="1.000000" stroke="none" 
	d="
M280.001892,135.046036 
	C279.604523,135.086807 279.207153,135.127579 278.150330,135.255920 
	C272.350555,138.602310 267.210205,141.861099 262.069855,145.119904 
	C261.866577,145.347076 261.654449,145.565659 260.946045,146.030853 
	C258.645935,147.525604 256.833191,148.765167 255.020432,150.004715 
	C259.646881,137.179291 269.679413,132.545639 282.510559,132.258087 
	C281.763153,133.392319 280.882507,134.219177 280.001892,135.046036 
z"/>
<path fill="#857F6A" opacity="1.000000" stroke="none" 
	d="
M287.987488,132.129486 
	C287.519897,132.079514 287.052307,132.029556 286.247314,131.875122 
	C288.889069,127.162697 294.005096,127.320259 298.364868,127.085495 
	C304.245514,126.768852 310.213593,127.700897 316.114899,128.359283 
	C318.006683,128.570358 319.805664,129.612839 321.473877,130.532089 
	C319.660645,130.641968 318.009308,130.290771 316.382477,130.381042 
	C306.914276,130.906403 297.451874,131.535477 287.987488,132.129486 
z"/>
<path fill="#A29480" opacity="1.000000" stroke="none" 
	d="
M288.378998,132.248260 
	C297.451874,131.535477 306.914276,130.906403 316.382477,130.381042 
	C318.009308,130.290771 319.660645,130.641968 321.737122,130.768845 
	C322.578583,130.804626 322.983612,130.860809 323.696899,131.216675 
	C324.007019,131.686386 324.008881,131.856400 324.010773,132.026413 
	C312.264008,132.139954 300.517273,132.253510 288.378998,132.248260 
z"/>
<path fill="#706E5B" opacity="1.000000" stroke="none" 
	d="
M248.568512,158.090515 
	C245.058624,168.103210 241.246353,178.259186 237.282806,188.747452 
	C238.218033,182.853104 238.623276,176.397400 240.614792,170.475098 
	C242.106644,166.038696 245.641113,162.289169 248.568512,158.090515 
z"/>
<path fill="#837B6A" opacity="1.000000" stroke="none" 
	d="
M399.664520,198.718384 
	C399.208313,197.619583 398.752106,196.520782 398.039459,194.868301 
	C396.845367,191.694305 395.907684,189.074005 394.969971,186.453705 
	C400.562469,193.785355 405.670197,201.368622 407.327057,210.695419 
	C407.378082,210.982758 406.713654,211.397171 405.926483,211.613312 
	C403.534943,207.222336 401.599731,202.970367 399.664520,198.718384 
z"/>
<path fill="#A29480" opacity="1.000000" stroke="none" 
	d="
M240.659180,316.960571 
	C241.435730,314.883026 242.238815,313.125549 243.237854,311.127991 
	C243.828735,314.908051 244.223648,318.928131 244.490265,323.546753 
	C244.231598,324.765015 244.101227,325.384705 243.970856,326.004425 
	C243.886398,328.459381 243.801941,330.914337 243.391571,333.566223 
	C242.313370,329.850952 241.561111,325.938812 240.808838,322.026642 
	C240.767792,320.444641 240.726746,318.862640 240.659180,316.960571 
z"/>
<path fill="#706E5B" opacity="1.000000" stroke="none" 
	d="
M387.098755,328.739563 
	C389.943970,324.281525 393.147583,319.804810 396.614685,315.117645 
	C400.363647,322.259918 396.492340,327.936279 387.098755,328.739563 
z"/>
<path fill="#A29480" opacity="1.000000" stroke="none" 
	d="
M366.173676,151.491257 
	C358.970306,147.626099 351.780029,143.736267 344.556915,139.908417 
	C341.821075,138.458572 339.009552,137.151566 336.394073,135.536499 
	C343.040222,137.861298 349.524841,140.429047 356.009430,142.996780 
	C356.383789,143.127731 356.758118,143.258682 357.596436,143.734894 
	C360.764801,146.550522 363.469238,149.020889 366.173676,151.491257 
z"/>
<path fill="#857F6A" opacity="1.000000" stroke="none" 
	d="
M366.399445,151.689056 
	C363.469238,149.020889 360.764801,146.550522 357.880615,143.822754 
	C365.700470,147.587830 374.807678,150.274536 377.660797,160.451157 
	C374.325562,158.080704 371.180969,155.532867 368.036407,152.985031 
	C367.566010,152.618973 367.095612,152.252914 366.399445,151.689056 
z"/>
<path fill="#857F6A" opacity="1.000000" stroke="none" 
	d="
M355.850098,142.703003 
	C349.524841,140.429047 343.040222,137.861298 336.165009,135.292694 
	C335.081177,135.236267 334.388000,135.180695 333.093994,134.882660 
	C331.294922,134.125732 330.096649,133.611282 328.898376,133.096817 
	C328.898376,133.096817 328.822632,132.694916 328.833435,132.490723 
	C338.920197,132.671463 347.998108,135.703430 355.850098,142.703003 
z"/>
<path fill="#706E5B" opacity="1.000000" stroke="none" 
	d="
M240.586578,322.305603 
	C241.561111,325.938812 242.313370,329.850952 243.303406,334.021484 
	C243.768768,335.498199 243.996368,336.716553 244.226715,338.306335 
	C243.013245,337.907745 240.824646,337.227600 240.743790,336.352631 
	C240.322174,331.790558 240.436493,327.178925 240.586578,322.305603 
z"/>
<path fill="#857F6A" opacity="1.000000" stroke="none" 
	d="
M391.608582,180.899719 
	C391.046509,180.650970 390.601990,180.109726 389.950195,179.042206 
	C389.041718,177.589569 388.340576,176.663208 387.639404,175.736862 
	C387.206299,175.006958 386.773193,174.277054 386.058228,172.993622 
	C384.974274,171.559937 384.172150,170.679764 383.370056,169.799576 
	C383.370056,169.799576 383.137726,169.444260 383.021057,168.939407 
	C382.863922,168.005188 382.823486,167.575806 382.892029,167.064392 
	C383.000977,166.982361 383.218811,166.818100 383.218811,166.818100 
	C387.821686,170.324234 391.458832,174.426208 391.608582,180.899719 
z"/>
<path fill="#706E5B" opacity="1.000000" stroke="none" 
	d="
M248.917786,343.098053 
	C249.432648,343.646423 249.947495,344.194794 250.814896,345.237549 
	C252.118500,346.665527 253.069550,347.599091 254.020599,348.532654 
	C248.587936,350.531494 246.829193,349.333466 246.674866,342.968262 
	C247.648376,342.791595 248.283081,342.944824 248.917786,343.098053 
z"/>
<path fill="#A79883" opacity="1.000000" stroke="none" 
	d="
M399.581818,199.137787 
	C401.599731,202.970367 403.534943,207.222336 405.694763,211.738358 
	C405.904877,212.474365 405.890411,212.946335 405.802368,213.765167 
	C401.083466,210.359894 399.651672,205.232300 399.581818,199.137787 
z"/>
<path fill="#A29480" opacity="1.000000" stroke="none" 
	d="
M368.162354,153.296295 
	C371.180969,155.532867 374.325562,158.080704 377.755432,160.802856 
	C378.608459,161.791138 379.176178,162.605103 380.004791,163.942719 
	C380.454498,165.017334 380.643341,165.568298 380.832184,166.119263 
	C376.650909,161.948685 372.469635,157.778122 368.162354,153.296295 
z"/>
<path fill="#A79883" opacity="1.000000" stroke="none" 
	d="
M408.969879,232.632416 
	C405.693542,228.736221 404.603912,223.958359 405.914978,218.665787 
	C407.177917,221.750748 408.155518,224.872726 409.133148,227.994720 
	C409.112701,229.403656 409.092285,230.812576 408.969879,232.632416 
z"/>
<path fill="#837B6A" opacity="1.000000" stroke="none" 
	d="
M409.253632,227.627960 
	C408.155518,224.872726 407.177917,221.750748 406.030823,218.289825 
	C405.939728,217.488281 406.018127,217.025681 406.220673,216.233246 
	C409.998077,218.984283 410.276367,222.965317 409.253632,227.627960 
z"/>
<path fill="#A29480" opacity="1.000000" stroke="none" 
	d="
M255.011734,150.004639 
	C256.833191,148.765167 258.645935,147.525604 260.777374,146.184967 
	C258.412628,149.067581 255.729202,152.051285 252.740723,155.144180 
	C252.450958,154.814957 252.466263,154.376556 252.741089,153.422699 
	C253.669739,151.944244 254.338882,150.981232 255.008026,150.018219 
	C255.008041,150.018219 255.003036,150.004562 255.011734,150.004639 
z"/>
<path fill="#A79883" opacity="1.000000" stroke="none" 
	d="
M394.802856,186.520035 
	C395.907684,189.074005 396.845367,191.694305 397.866089,194.674011 
	C396.661530,192.479752 395.373962,189.926117 394.219330,187.090057 
	C394.352264,186.807648 394.635742,186.586365 394.802856,186.520035 
z"/>
<path fill="#A29480" opacity="1.000000" stroke="none" 
	d="
M280.276978,135.116241 
	C280.882507,134.219177 281.763153,133.392319 282.823120,132.322983 
	C283.470825,132.073318 283.939209,132.066147 284.753479,132.123413 
	C283.583649,133.187378 282.067871,134.186905 280.276978,135.116241 
z"/>
<path fill="#A29480" opacity="1.000000" stroke="none" 
	d="
M248.843872,342.789368 
	C248.283081,342.944824 247.648376,342.791595 246.702377,342.545044 
	C246.317688,341.810699 246.244293,341.169647 246.196350,340.203796 
	C247.071167,340.746185 247.920563,341.613434 248.843872,342.789368 
z"/>
<path fill="#A29480" opacity="1.000000" stroke="none" 
	d="
M254.247559,348.480286 
	C253.069550,347.599091 252.118500,346.665527 251.014221,345.437195 
	C252.103851,345.978668 253.346710,346.814911 254.745178,347.945618 
	C254.900803,348.240021 254.474503,348.427887 254.247559,348.480286 
z"/>
<path fill="#857F6A" opacity="1.000000" stroke="none" 
	d="
M254.734833,150.160553 
	C254.338882,150.981232 253.669739,151.944244 252.779968,153.095505 
	C253.193451,152.290131 253.827545,151.296509 254.734833,150.160553 
z"/>
<path fill="#857F6A" opacity="1.000000" stroke="none" 
	d="
M380.846924,166.130753 
	C380.643341,165.568298 380.454498,165.017334 380.170349,164.190475 
	C381.022522,164.697815 381.969971,165.481064 383.068115,166.541199 
	C383.218811,166.818100 383.000977,166.982361 382.669373,166.916718 
	C381.857788,166.614426 381.377808,166.377792 380.897827,166.141159 
	C380.897827,166.141159 380.861694,166.142242 380.846924,166.130753 
z"/>
<path fill="#857F6A" opacity="1.000000" stroke="none" 
	d="
M251.243408,156.830078 
	C250.601334,157.312225 250.083389,157.545547 249.311844,157.905853 
	C249.721481,157.251648 250.384735,156.470413 251.360001,155.603500 
	C251.570526,155.872299 251.469040,156.226776 251.243408,156.830078 
z"/>
<path fill="#706E5B" opacity="1.000000" stroke="none" 
	d="
M385.120453,330.765991 
	C385.363556,330.317352 385.847382,329.699615 386.597321,328.943665 
	C386.362671,329.402588 385.861908,329.999695 385.120453,330.765991 
z"/>
<path fill="#857F6A" opacity="1.000000" stroke="none" 
	d="
M324.364716,132.000580 
	C324.008881,131.856400 324.007019,131.686386 324.000610,131.261383 
	C324.612671,131.127563 325.229340,131.248703 325.973816,131.518753 
	C325.640656,131.770004 325.179657,131.872375 324.364716,132.000580 
z"/>
<path fill="#5F6A59" opacity="1.000000" stroke="none" 
	d="
M250.237885,188.616272 
	C250.191574,187.994278 250.145279,187.372299 250.347855,186.145996 
	C252.928818,180.288467 255.260941,175.035248 257.910828,169.646149 
	C263.623108,167.106430 264.656708,161.967041 266.022400,157.026093 
	C266.000000,157.002167 266.051239,157.042313 266.344666,156.924408 
	C267.431580,155.877640 268.225128,154.948792 269.009338,154.009979 
	C269.000000,154.000000 269.020050,154.018616 269.311279,153.917694 
	C270.423462,152.982300 271.244385,152.147827 272.362976,151.143768 
	C274.269989,150.157532 275.879425,149.340897 277.921509,148.531815 
	C284.566986,147.272156 291.280060,147.401886 296.441620,142.136353 
	C297.528931,142.031509 298.255493,141.981796 299.234802,142.172165 
	C301.321655,143.114578 303.107300,144.216873 304.998688,144.445831 
	C311.193054,145.195679 317.473785,145.324707 323.625580,146.297714 
	C327.221954,146.866516 330.858093,148.169693 334.083618,149.882233 
	C339.937408,152.990204 345.156860,157.550201 351.262482,159.865402 
	C360.020111,163.186203 366.134369,169.252182 372.064697,176.333649 
	C373.712769,181.890198 375.303925,187.036880 376.954041,192.164642 
	C378.419495,196.718552 381.304321,199.851349 386.230164,201.277985 
	C387.499451,202.405228 388.622742,203.258591 389.809723,204.420227 
	C389.933685,205.143753 389.993988,205.559006 389.921265,206.341354 
	C387.382721,214.269470 389.374847,220.391541 395.856964,225.423248 
	C395.987823,226.505722 396.056366,227.229736 395.983490,228.324844 
	C395.677124,230.505524 395.281708,232.328888 395.388672,234.122269 
	C395.773407,240.575562 396.195862,247.032364 396.860779,253.461304 
	C397.365814,258.343933 398.260773,263.186218 398.945770,268.356293 
	C398.828613,269.074524 398.747894,269.482971 398.405212,270.089813 
	C397.456116,273.551727 396.768921,276.815186 396.059753,280.434174 
	C395.945435,281.495728 395.853088,282.201752 395.486084,283.081818 
	C389.516266,288.244171 388.823944,295.133484 387.960571,302.300995 
	C387.678680,303.221161 387.522919,303.846100 387.335266,304.728699 
	C387.213318,305.320465 387.123322,305.654541 386.711945,306.124207 
	C383.957581,308.620728 380.830414,310.586884 379.221161,313.416351 
	C374.298676,322.071533 367.540955,328.364899 358.558289,332.632294 
	C356.357513,333.677765 354.956024,336.405609 352.929199,338.470459 
	C352.130188,338.726746 351.589020,338.872528 350.743927,338.938721 
	C346.937286,340.495056 343.434601,342.131073 339.665253,343.852722 
	C338.107025,344.133575 336.815399,344.328735 335.034485,344.446686 
	C329.453888,344.931732 324.367676,345.908051 319.270386,345.969635 
	C308.810120,346.096039 298.316681,346.126617 287.891449,345.406769 
	C282.541138,345.037354 277.284180,343.056427 272.030365,341.636078 
	C268.261139,340.617096 264.567017,339.320129 260.643555,338.059875 
	C260.447693,337.972595 260.071106,337.767365 259.949402,337.494385 
	C258.944794,336.462799 258.061890,335.704193 257.044861,334.658295 
	C256.778442,333.754578 256.646149,333.138123 256.585938,332.014099 
	C256.623749,320.187988 256.589478,308.869415 256.499939,297.248749 
	C256.462463,296.334351 256.480255,295.722076 256.683105,294.782104 
	C256.646301,292.291046 256.424469,290.127686 256.169098,287.592957 
	C256.111420,286.476562 256.087219,285.731476 256.199127,284.600433 
	C256.445099,278.287231 256.964142,272.328674 256.512787,266.444489 
	C256.238373,262.867065 254.465897,259.404541 253.284683,255.585999 
	C253.112503,254.871323 253.022018,254.460999 253.066650,253.696365 
	C254.181015,246.259857 252.886154,243.709656 247.622742,242.957260 
	C245.135895,241.967743 242.995789,241.058090 240.883270,239.736053 
	C241.099426,237.389404 241.287994,235.455154 241.552704,233.269333 
	C241.766281,232.695541 241.903702,232.373337 242.388382,231.984131 
	C243.991470,230.515915 245.247314,229.114716 246.526001,227.654633 
	C246.548828,227.595764 246.640854,227.509277 246.954803,227.440414 
	C248.182602,225.584106 249.096436,223.796661 250.025314,221.622818 
	C249.965714,220.471222 249.891037,219.706039 249.816360,218.940842 
	C249.822266,218.228973 249.828171,217.517090 249.860504,216.051147 
	C249.925552,214.203400 249.964172,213.109741 250.112762,211.731232 
	C250.044952,210.280304 249.867188,209.114212 249.657166,207.511078 
	C249.648193,204.737320 249.671478,202.400574 249.875519,199.708221 
	C250.186829,197.770981 250.317383,196.189377 250.415009,194.289429 
	C250.414856,193.332779 250.447617,192.694473 250.595230,191.775085 
	C250.552689,190.534760 250.395294,189.575516 250.237885,188.616272 
z"/>
<path fill="#7A7360" opacity="1.000000" stroke="none" 
	d="
M372.033478,175.915558 
	C366.134369,169.252182 360.020111,163.186203 351.262482,159.865402 
	C345.156860,157.550201 339.937408,152.990204 334.083618,149.882233 
	C330.858093,148.169693 327.221954,146.866516 323.625580,146.297714 
	C317.473785,145.324707 311.193054,145.195679 304.998688,144.445831 
	C303.107300,144.216873 301.321655,143.114578 299.403961,141.999451 
	C299.563568,141.374176 299.783020,141.139465 299.978699,140.882523 
	C302.324860,140.850586 304.670990,140.818649 307.868774,140.879395 
	C325.381378,142.209030 340.709290,147.594635 355.106628,155.876465 
	C355.932617,156.441086 356.758606,157.005707 357.992615,158.042801 
	C363.624481,163.651337 368.848328,168.787384 374.072174,173.923431 
	C374.285767,174.160828 374.506409,174.391510 374.988647,175.109146 
	C376.076233,177.425003 376.909271,179.247192 377.462708,180.918564 
	C375.466553,179.150345 373.750031,177.532959 372.033478,175.915558 
z"/>
<path fill="#A79782" opacity="1.000000" stroke="none" 
	d="
M351.047852,339.018311 
	C351.589020,338.872528 352.130188,338.726746 353.278992,338.380585 
	C363.185852,334.231110 370.765533,327.915985 377.922485,320.951111 
	C378.068878,321.084351 378.362061,321.350372 378.362061,321.350372 
	C372.917786,326.372986 368.156281,332.563416 361.910461,336.215027 
	C335.602600,351.595612 307.357513,355.631866 277.754578,347.841431 
	C272.742493,346.522430 268.115936,343.738464 263.512512,341.406128 
	C285.097534,350.379974 307.328308,350.338440 329.809875,347.085236 
	C331.796478,346.797791 333.622955,345.403900 335.523804,344.523926 
	C336.815399,344.328735 338.107025,344.133575 340.032715,343.819275 
	C344.127167,342.139526 347.587524,340.578918 351.047852,339.018311 
z"/>
<path fill="#A79782" opacity="1.000000" stroke="none" 
	d="
M256.498016,295.109802 
	C256.480255,295.722076 256.462463,296.334351 256.293152,297.574341 
	C255.401154,308.092590 254.538101,317.977081 254.051025,327.880127 
	C253.977112,329.383301 255.649292,330.972351 256.513824,332.521698 
	C256.646149,333.138123 256.778442,333.754578 257.181976,334.918610 
	C258.325836,336.233276 259.198456,337.000305 260.071106,337.767365 
	C260.071106,337.767365 260.447693,337.972595 260.789368,338.292908 
	C261.397858,339.092102 261.664673,339.570953 261.931458,340.049835 
	C255.656006,338.437744 252.209457,334.835663 252.186050,329.243134 
	C252.097366,308.056641 252.134995,286.869568 252.150436,265.682709 
	C252.151154,264.699127 252.393646,263.715698 252.821640,262.719910 
	C254.100845,270.133881 255.081940,277.560150 256.063049,284.986420 
	C256.087219,285.731476 256.111420,286.476562 256.095123,287.995972 
	C256.202423,290.883484 256.350220,292.996643 256.498016,295.109802 
z"/>
<path fill="#7A7360" opacity="1.000000" stroke="none" 
	d="
M262.111450,340.210052 
	C261.664673,339.570953 261.397858,339.092102 260.985229,338.380188 
	C264.567017,339.320129 268.261139,340.617096 272.030365,341.636078 
	C277.284180,343.056427 282.541138,345.037354 287.891449,345.406769 
	C298.316681,346.126617 308.810120,346.096039 319.270386,345.969635 
	C324.367676,345.908051 329.453888,344.931732 335.034485,344.446655 
	C333.622955,345.403900 331.796478,346.797791 329.809875,347.085236 
	C307.328308,350.338440 285.097534,350.379974 263.341675,341.118042 
	C262.752625,340.817810 262.526581,340.589539 262.111450,340.210052 
z"/>
<path fill="#A79782" opacity="1.000000" stroke="none" 
	d="
M299.597015,140.747482 
	C299.783020,141.139465 299.563568,141.374176 299.151184,141.759369 
	C298.255493,141.981796 297.528931,142.031509 296.027008,142.118347 
	C289.330719,144.278427 283.409760,146.401337 277.488831,148.524261 
	C275.879425,149.340897 274.269989,150.157532 272.098145,151.264984 
	C270.697144,152.376740 269.858612,153.197678 269.020050,154.018616 
	C269.020050,154.018616 269.000000,154.000000 268.743225,154.163757 
	C267.674744,155.232437 266.862976,156.137375 266.051239,157.042313 
	C266.051239,157.042313 266.000000,157.002167 265.736572,157.201141 
	C262.846466,161.527420 260.219757,165.654724 257.593048,169.782013 
	C255.260941,175.035248 252.928818,180.288467 250.320435,185.835266 
	C251.352478,180.654572 251.686356,174.687897 254.155899,169.800339 
	C260.965240,156.323761 271.328918,146.124771 285.999725,141.420334 
	C290.072479,140.114304 294.792358,140.826294 299.597015,140.747482 
z"/>
<path fill="#A79782" opacity="1.000000" stroke="none" 
	d="
M242.041138,232.051132 
	C241.903702,232.373337 241.766281,232.695541 241.271576,233.443756 
	C238.370758,235.939087 236.029984,238.010300 240.855682,240.148438 
	C242.995789,241.058090 245.135895,241.967743 247.789185,243.268219 
	C249.845413,247.122910 251.388489,250.586807 252.931549,254.050690 
	C253.022018,254.460999 253.112503,254.871323 253.099640,255.899170 
	C252.870316,256.723602 252.744339,256.930511 252.618362,257.137390 
	C251.468994,255.232925 249.731949,253.454056 249.292496,251.397873 
	C248.374924,247.104675 245.965118,244.838684 241.894760,243.676117 
	C234.430908,241.544266 233.804535,239.530289 238.446014,233.395493 
	C242.025345,228.664551 245.637985,223.958801 249.526093,219.091354 
	C249.891037,219.706039 249.965714,220.471222 249.789642,221.854340 
	C248.572891,224.151260 247.606873,225.830261 246.640854,227.509277 
	C246.640854,227.509277 246.548828,227.595764 246.251770,227.790161 
	C244.650192,229.340073 243.345673,230.695602 242.041138,232.051132 
z"/>
<path fill="#A79782" opacity="1.000000" stroke="none" 
	d="
M396.124939,227.953766 
	C396.056366,227.229736 395.987823,226.505722 395.866272,225.018188 
	C393.893646,218.161194 391.973969,212.067734 390.054291,205.974258 
	C389.993988,205.559006 389.933685,205.143753 389.775818,204.053696 
	C388.032227,199.643448 386.386292,195.907990 384.888245,192.066422 
	C385.036133,191.960297 385.332214,191.748352 385.332214,191.748352 
	C386.602631,193.436340 388.193420,194.970184 389.091766,196.837189 
	C395.189178,209.509293 398.000488,223.165070 400.501007,236.861023 
	C401.112671,240.211380 400.475098,243.789825 400.130219,247.272873 
	C398.607361,240.839493 397.366150,234.396622 396.124939,227.953766 
z"/>
<path fill="#A79782" opacity="1.000000" stroke="none" 
	d="
M355.005005,155.550354 
	C340.709290,147.594635 325.381378,142.209030 308.306335,140.851959 
	C313.715271,140.907623 319.872314,139.938370 325.285950,141.517548 
	C334.239929,144.129486 342.744232,148.315613 351.361359,152.016800 
	C352.745850,152.611465 353.732697,154.131805 355.005005,155.550354 
z"/>
<path fill="#7A7461" opacity="1.000000" stroke="none" 
	d="
M395.983490,228.324844 
	C397.366150,234.396622 398.607361,240.839493 399.999023,247.659531 
	C400.181702,251.019058 400.213898,254.001419 400.178406,257.849579 
	C400.164185,259.851074 400.217682,260.986725 400.271210,262.122406 
	C400.209412,263.157623 400.147644,264.192810 399.912720,265.858276 
	C399.487122,267.007812 399.234680,267.527161 398.982208,268.046478 
	C398.260773,263.186218 397.365814,258.343933 396.860779,253.461304 
	C396.195862,247.032364 395.773407,240.575562 395.388672,234.122269 
	C395.281708,232.328888 395.677124,230.505524 395.983490,228.324844 
z"/>
<path fill="#A79782" opacity="1.000000" stroke="none" 
	d="
M387.033325,305.988647 
	C387.123322,305.654541 387.213318,305.320465 387.566528,304.517395 
	C388.300385,303.364075 388.771088,302.679779 389.411072,301.677002 
	C391.640472,295.208313 393.700623,289.058044 395.760773,282.907806 
	C395.853088,282.201752 395.945435,281.495728 396.328674,280.408447 
	C396.799408,280.016693 396.979187,280.006195 397.158936,279.995697 
	C396.471588,284.495819 396.535950,289.283356 394.947205,293.438843 
	C391.127197,303.430206 387.179779,313.507660 378.622345,321.150787 
	C378.362061,321.350372 378.068878,321.084351 378.090210,320.658356 
	C381.085480,315.484436 384.059387,310.736542 387.033325,305.988647 
z"/>
<path fill="#A79782" opacity="1.000000" stroke="none" 
	d="
M250.002792,212.016068 
	C249.964172,213.109741 249.925552,214.203400 249.804642,215.698898 
	C249.141617,215.533295 248.201538,215.055298 248.034683,214.384888 
	C245.929245,205.924667 244.507660,197.462509 249.464996,189.377197 
	C250.039261,190.334946 250.259811,191.195557 250.480377,192.056152 
	C250.447617,192.694473 250.414856,193.332779 250.238464,194.549301 
	C249.961472,196.772949 249.828110,198.418396 249.694763,200.063843 
	C249.671478,202.400574 249.648193,204.737320 249.571671,207.800537 
	C249.679886,209.690048 249.841339,210.853058 250.002792,212.016068 
z"/>
<path fill="#797462" opacity="1.000000" stroke="none" 
	d="
M252.656738,257.537354 
	C252.744339,256.930511 252.870316,256.723602 253.181335,256.203552 
	C254.465897,259.404541 256.238373,262.867065 256.512787,266.444489 
	C256.964142,272.328674 256.445099,278.287231 256.199127,284.600433 
	C255.081940,277.560150 254.100845,270.133881 252.951111,262.327637 
	C252.753342,260.610901 252.724228,259.274078 252.656738,257.537354 
z"/>
<path fill="#A79782" opacity="1.000000" stroke="none" 
	d="
M374.018860,173.565460 
	C368.848328,168.787384 363.624481,163.651337 358.227844,158.229767 
	C365.507843,160.791595 370.675018,166.021454 374.018860,173.565460 
z"/>
<path fill="#A79782" opacity="1.000000" stroke="none" 
	d="
M377.742310,181.069382 
	C376.909271,179.247192 376.076233,177.425003 375.161743,175.274612 
	C378.450134,180.298965 381.820007,185.651550 385.261047,191.376236 
	C385.332214,191.748352 385.036133,191.960297 384.731812,191.836456 
	C383.965759,191.138168 383.504089,190.563705 383.045288,189.977173 
	C383.048218,189.965073 383.023438,189.962875 382.911346,189.686523 
	C382.302338,188.788681 381.805389,188.167175 381.260559,187.208496 
	C380.055878,184.937332 378.899078,183.003357 377.742310,181.069382 
z"/>
<path fill="#A29480" opacity="1.000000" stroke="none" 
	d="
M262.409943,145.024414 
	C267.210205,141.861099 272.350555,138.602310 277.852020,135.283203 
	C273.058777,138.458237 267.904388,141.693573 262.409943,145.024414 
z"/>
<path fill="#A79782" opacity="1.000000" stroke="none" 
	d="
M398.945770,268.356293 
	C399.234680,267.527161 399.487122,267.007812 399.896271,266.246826 
	C400.970612,270.230530 401.585632,274.399750 397.572937,277.569183 
	C397.739502,274.879211 398.203339,272.385284 398.667175,269.891388 
	C398.747894,269.482971 398.828613,269.074524 398.945770,268.356293 
z"/>
<path fill="#7A7461" opacity="1.000000" stroke="none" 
	d="
M398.405212,270.089813 
	C398.203339,272.385284 397.739502,274.879211 397.293091,277.758423 
	C397.271454,278.554962 397.232330,278.966125 397.176086,279.686523 
	C396.979187,280.006195 396.799408,280.016693 396.350677,280.052948 
	C396.768921,276.815186 397.456116,273.551727 398.405212,270.089813 
z"/>
<path fill="#A29480" opacity="1.000000" stroke="none" 
	d="
M329.035797,133.350189 
	C330.096649,133.611282 331.294922,134.125732 332.747498,134.847198 
	C331.725586,134.570648 330.449402,134.087112 329.035797,133.350189 
z"/>
<path fill="#A79782" opacity="1.000000" stroke="none" 
	d="
M400.443512,261.920593 
	C400.217682,260.986725 400.164185,259.851074 400.195221,258.294769 
	C400.391785,259.155670 400.503784,260.437225 400.443512,261.920593 
z"/>
<path fill="#A29480" opacity="1.000000" stroke="none" 
	d="
M383.454041,170.096039 
	C384.172150,170.679764 384.974274,171.559937 385.878998,172.730469 
	C385.167084,172.144714 384.352570,171.268600 383.454041,170.096039 
z"/>
<path fill="#A29480" opacity="1.000000" stroke="none" 
	d="
M387.676514,176.040085 
	C388.340576,176.663208 389.041718,177.589569 389.829254,178.804749 
	C389.181610,178.176834 388.447601,177.260071 387.676514,176.040085 
z"/>
<path fill="#7E7864" opacity="1.000000" stroke="none" 
	d="
M250.595245,191.775085 
	C250.259811,191.195557 250.039261,190.334946 249.707077,189.159683 
	C249.595444,188.845016 249.901276,188.686691 250.069580,188.651489 
	C250.395294,189.575516 250.552689,190.534760 250.595245,191.775085 
z"/>
<path fill="#A29480" opacity="1.000000" stroke="none" 
	d="
M380.994507,166.427063 
	C381.377808,166.377792 381.857788,166.614426 382.560425,166.998749 
	C382.823486,167.575806 382.863922,168.005188 382.909271,168.758942 
	C382.306549,168.293213 381.698883,167.503082 380.994507,166.427063 
z"/>
<path fill="#B3A48E" opacity="1.000000" stroke="none" 
	d="
M244.081451,325.744324 
	C244.101227,325.384705 244.231598,324.765015 244.484482,323.997559 
	C244.468674,324.394623 244.330368,324.939392 244.081451,325.744324 
z"/>
<path fill="#CCB39D" opacity="1.000000" stroke="none" 
	d="
M113.009079,302.975037 
	C111.954025,302.935364 110.898972,302.895660 109.300583,302.469971 
	C107.300934,301.121552 105.963219,299.648468 104.369347,299.278290 
	C92.672058,296.561310 81.626129,292.378143 71.546394,285.746887 
	C66.596878,282.490723 61.520531,279.427368 56.501579,276.276764 
	C56.274975,276.168274 56.080265,276.018341 55.737091,275.312500 
	C54.489651,273.155243 53.451530,271.492798 52.349895,269.873566 
	C49.382912,265.512634 46.299168,261.226868 43.481991,256.771973 
	C42.926044,255.892838 43.355270,254.390701 43.330154,253.175873 
	C44.501110,253.375961 46.038383,253.173676 46.778309,253.847244 
	C49.665306,256.475433 53.348797,258.925385 54.805481,262.279999 
	C57.660027,268.853699 63.647228,270.860321 69.038086,274.426270 
	C73.058159,281.728363 80.703102,283.569336 86.971962,286.875488 
	C92.560455,289.822815 98.391678,293.647522 105.548248,292.405334 
	C107.003242,292.152771 108.668152,293.515289 110.286240,293.703278 
	C112.832558,293.999115 115.421257,293.930145 118.390701,293.993744 
	C119.847649,294.070343 120.905907,294.168854 122.192558,294.508575 
	C125.679993,295.802063 128.873611,297.269440 132.215485,297.796234 
	C135.968964,298.387848 139.908218,298.578400 143.674103,298.143005 
	C150.347839,297.371338 156.983871,296.146332 163.558075,294.746460 
	C164.908600,294.458893 165.918427,292.571320 167.441849,291.322083 
	C168.533783,291.156616 169.269165,291.090240 170.248871,291.230896 
	C172.625320,291.224121 174.950989,291.484406 176.853333,290.707794 
	C182.604248,288.360168 188.190903,285.610168 194.029465,282.930725 
	C194.167038,281.873505 194.348801,279.972229 194.671417,278.095215 
	C195.526047,273.122864 197.241989,268.147552 197.158997,263.197845 
	C197.006775,254.119202 195.376755,245.067612 195.177338,235.986862 
	C195.008163,228.283127 196.118149,220.559082 196.406525,212.834473 
	C196.565536,208.574951 196.198090,204.295776 196.044861,199.650070 
	C196.089554,198.526993 196.157394,197.779312 196.473236,196.809708 
	C200.132477,192.794891 200.391403,188.364014 199.289642,183.565308 
	C199.243103,183.463455 199.266266,183.240692 199.681183,183.289413 
	C203.619446,181.678436 207.117310,179.961655 210.672745,178.373749 
	C214.952133,176.462570 216.158066,173.810501 213.700592,169.736877 
	C211.311935,165.777313 208.133011,162.302460 205.584015,158.428635 
	C204.079758,156.142548 203.125031,153.494888 202.311432,150.975006 
	C204.480499,150.627548 206.261337,150.314926 208.181030,150.310577 
	C213.706863,157.579712 219.155716,164.493805 224.461395,171.516083 
	C228.771790,177.221054 227.628738,179.770584 220.669189,181.914780 
	C216.427383,183.221619 212.323273,185.100891 208.360062,187.120850 
	C206.900330,187.864868 205.135284,189.689880 205.036423,191.126846 
	C204.652206,196.711334 204.881546,202.338043 204.882553,207.949036 
	C204.824097,209.664780 204.765640,211.380539 204.416748,213.749268 
	C203.175415,216.477905 201.503586,218.524078 201.417236,220.635101 
	C201.209900,225.703384 201.716507,230.803711 201.989410,235.888214 
	C202.638885,247.988586 203.424835,260.083130 203.898590,272.190125 
	C203.992218,274.582581 203.587219,277.463043 202.298752,279.363647 
	C194.925812,290.239410 184.900040,297.201904 171.443176,297.805786 
	C167.550400,297.980499 166.274841,299.127319 166.904984,302.755951 
	C166.481995,302.826324 166.058990,302.896698 164.932861,302.831665 
	C158.526062,302.164398 152.565796,300.213196 147.939804,305.641602 
	C146.247726,305.707367 144.555649,305.773102 142.163055,305.571472 
	C132.128021,302.695862 122.782036,300.227386 113.009079,302.975037 
M119.865715,297.730194 
	C118.505745,297.797119 117.145767,297.864044 115.785797,297.930939 
	C115.993896,298.576050 116.202003,299.221130 116.410110,299.866211 
	C117.669182,299.270508 118.928246,298.674805 119.865715,297.730194 
z"/>
<path fill="#B8A58F" opacity="1.000000" stroke="none" 
	d="
M68.875946,274.133698 
	C63.647228,270.860321 57.660027,268.853699 54.805481,262.279999 
	C53.348797,258.925385 49.665306,256.475433 46.778309,253.847244 
	C46.038383,253.173676 44.501110,253.375961 43.330154,253.175873 
	C43.355270,254.390701 42.926044,255.892838 43.481991,256.771973 
	C46.299168,261.226868 49.382912,265.512634 52.349895,269.873566 
	C53.451530,271.492798 54.489651,273.155243 55.632130,275.159729 
	C45.853210,267.370789 39.580070,256.656921 34.207462,245.326965 
	C23.199276,222.112564 22.890673,197.431671 24.465723,172.537201 
	C25.451731,156.952881 29.882843,142.259247 35.760498,127.830414 
	C41.595013,113.507477 49.155918,100.402557 59.527023,88.927490 
	C69.025192,78.418274 80.131378,70.043762 93.119667,64.393494 
	C108.382050,57.753929 124.529518,53.470074 141.062988,54.399067 
	C160.495468,55.490948 178.740707,61.124336 191.499146,77.637543 
	C189.181351,76.343040 187.040146,74.837746 184.929489,73.290771 
	C181.614319,70.860954 178.319733,68.403046 174.675293,65.822861 
	C166.555710,63.125698 158.777237,60.562698 150.630829,58.027317 
	C145.868530,60.476059 142.316681,55.824375 138.629074,56.337433 
	C129.342361,57.629513 120.203651,59.985474 110.570435,61.912605 
	C97.092773,62.689346 86.594879,69.365356 76.451546,76.692688 
	C75.034424,77.716393 74.495346,79.955582 73.549820,81.632118 
	C75.795135,81.931213 78.551750,83.214386 80.197411,82.359352 
	C87.389458,78.622597 94.178917,74.119568 101.287483,70.209145 
	C103.931145,68.754868 107.047974,68.160728 110.266449,67.266380 
	C111.700409,67.264366 113.186630,67.597443 113.871475,67.004669 
	C117.427277,63.926876 121.161369,64.689865 124.683029,66.199318 
	C119.875244,67.647736 115.416779,69.002724 110.917770,70.206161 
	C92.316048,75.181908 76.827164,85.156616 64.939590,100.172707 
	C49.366718,119.843987 39.952034,142.291397 36.740685,167.261871 
	C35.893871,173.846405 34.901875,180.412277 33.828548,186.603821 
	C32.167530,175.972748 32.412086,165.858978 36.084114,155.637024 
	C39.400951,143.341095 42.417660,131.350845 48.358006,120.336304 
	C48.914028,119.305328 47.516144,117.220581 46.714027,114.612480 
	C43.633919,119.909790 41.471001,123.736099 39.206684,127.501434 
	C34.695415,135.003220 31.016493,142.705124 32.498428,152.020966 
	C31.130829,154.139435 29.765694,155.993774 29.109621,158.071960 
	C28.471590,160.092987 28.821125,162.410538 28.288055,164.482376 
	C24.349813,179.788696 25.756886,195.235046 27.060411,210.660812 
	C27.185034,212.135574 28.706112,213.492325 29.578907,214.903854 
	C30.654024,213.391129 32.290169,212.011124 32.686066,210.337723 
	C33.481167,206.976883 33.599396,203.455902 34.168640,200.342316 
	C36.116798,209.809570 37.893288,218.935501 39.386642,227.903717 
	C37.783642,226.084366 36.616108,224.262131 35.091667,222.816162 
	C34.032101,221.811142 32.481964,221.323349 31.150993,220.604477 
	C30.736052,221.886353 29.726679,223.317612 30.005030,224.425278 
	C31.528219,230.486694 33.194931,236.527054 35.196400,242.444733 
	C35.853336,244.387085 37.467735,246.146820 39.016457,247.590973 
	C39.882984,248.398987 41.512505,248.388763 42.798233,248.747223 
	C42.722919,247.616470 42.737846,246.471054 42.556835,245.357483 
	C41.724838,240.238998 40.838131,235.129425 40.171951,230.305206 
	C43.453209,236.603577 46.533562,242.613388 49.634792,248.869095 
	C49.720306,249.441513 49.839130,249.746964 50.102924,250.362427 
	C56.622864,258.295776 63.052021,265.898010 69.329834,273.658569 
	C69.178497,273.816895 68.875946,274.133698 68.875946,274.133698 
z"/>
<path fill="#CDB29E" opacity="1.000000" stroke="none" 
	d="
M175.016434,65.957031 
	C178.319733,68.403046 181.614319,70.860954 184.929489,73.290771 
	C187.040146,74.837746 189.181351,76.343040 191.656189,77.931961 
	C192.336243,78.377998 192.668991,78.759094 193.178497,79.737106 
	C196.620392,86.880318 199.885529,93.426628 202.791473,99.937119 
	C200.582901,99.953995 198.733551,100.006676 196.631348,99.840500 
	C194.640839,97.020432 193.100128,94.256256 191.116302,91.858734 
	C188.561264,88.770874 185.651169,85.976822 182.710907,82.924728 
	C182.296661,82.596802 182.101517,82.369453 181.832733,81.784317 
	C177.120758,77.312988 172.518448,73.168518 168.314880,69.009918 
	C170.814560,67.982880 172.915497,66.969955 175.016434,65.957031 
z"/>
<path fill="#B8A58F" opacity="1.000000" stroke="none" 
	d="
M167.287689,302.748138 
	C166.274841,299.127319 167.550400,297.980499 171.443176,297.805786 
	C184.900040,297.201904 194.925812,290.239410 202.298752,279.363647 
	C203.587219,277.463043 203.992218,274.582581 203.898590,272.190125 
	C203.424835,260.083130 202.638885,247.988586 201.989410,235.888214 
	C201.716507,230.803711 201.209900,225.703384 201.417236,220.635101 
	C201.503586,218.524078 203.175415,216.477905 204.357590,214.174469 
	C204.675522,220.089859 204.595901,226.240921 204.887115,232.374390 
	C205.343414,241.984573 205.652069,251.628204 206.738892,261.176208 
	C208.644196,277.914764 201.794571,289.665466 184.611694,297.058319 
	C179.159042,299.404297 173.328171,300.871185 167.287689,302.748138 
z"/>
<path fill="#CFB1A0" opacity="1.000000" stroke="none" 
	d="
M208.042160,150.002289 
	C206.261337,150.314926 204.480499,150.627548 202.347321,150.582336 
	C202.251770,143.493225 202.892181,136.744873 202.594040,130.038254 
	C202.457092,126.957672 200.478577,123.958961 199.268799,120.505127 
	C199.118164,118.395515 199.033920,116.703903 199.068390,114.714424 
	C199.093430,112.937927 198.999771,111.459305 199.240463,110.089554 
	C202.019669,111.801285 204.464523,113.404152 207.003967,115.384117 
	C208.298874,121.197670 209.499176,126.634125 210.699478,132.070572 
	C210.736511,132.790909 210.773560,133.511246 210.568909,134.798843 
	C209.565536,140.244827 208.803848,145.123566 208.042160,150.002289 
z"/>
<path fill="#B8A58F" opacity="1.000000" stroke="none" 
	d="
M208.181030,150.310577 
	C208.803848,145.123566 209.565536,140.244827 210.541016,135.158905 
	C210.842316,135.611099 211.117554,136.309601 210.989532,136.924072 
	C208.603394,148.377899 214.234024,156.687790 221.549637,164.440552 
	C223.940002,166.973770 226.004288,169.828140 228.096451,172.626297 
	C231.681458,177.421021 230.887665,180.291489 225.264145,182.554092 
	C221.563950,184.042831 217.769928,185.305069 213.991211,186.590134 
	C209.897964,187.982162 207.927032,190.768372 207.465820,195.084351 
	C207.027390,199.187103 206.027817,203.229904 205.078766,207.624054 
	C204.881546,202.338043 204.652206,196.711334 205.036423,191.126846 
	C205.135284,189.689880 206.900330,187.864868 208.360062,187.120850 
	C212.323273,185.100891 216.427383,183.221619 220.669189,181.914780 
	C227.628738,179.770584 228.771790,177.221054 224.461395,171.516083 
	C219.155716,164.493805 213.706863,157.579712 208.181030,150.310577 
z"/>
<path fill="#B8A58F" opacity="1.000000" stroke="none" 
	d="
M56.675285,276.574341 
	C61.520531,279.427368 66.596878,282.490723 71.546394,285.746887 
	C81.626129,292.378143 92.672058,296.561310 104.369347,299.278290 
	C105.963219,299.648468 107.300934,301.121552 108.912323,302.387695 
	C92.231743,299.404510 76.710419,293.065979 62.997982,282.638458 
	C60.773167,280.946594 58.890053,278.805420 56.675285,276.574341 
z"/>
<path fill="#B8A58F" opacity="1.000000" stroke="none" 
	d="
M210.776672,131.607056 
	C209.499176,126.634125 208.298874,121.197670 207.002502,114.972488 
	C205.985641,111.092583 205.064819,108.001411 204.118286,104.546585 
	C203.778595,102.779594 203.464630,101.376266 203.150681,99.972931 
	C199.885529,93.426628 196.620392,86.880318 193.286072,79.967621 
	C200.754501,86.404701 204.517593,95.573700 207.109375,104.841316 
	C209.473953,113.296501 209.690567,122.352394 210.776672,131.607056 
z"/>
<path fill="#B8A58F" opacity="1.000000" stroke="none" 
	d="
M113.357101,303.143921 
	C122.782036,300.227386 132.128021,302.695862 141.741272,305.520233 
	C132.581696,304.928467 123.143410,304.120605 113.357101,303.143921 
z"/>
<path fill="#B8A58F" opacity="1.000000" stroke="none" 
	d="
M148.354675,305.693848 
	C152.565796,300.213196 158.526062,302.164398 164.610992,302.841614 
	C159.584702,303.906647 154.177124,304.826355 148.354675,305.693848 
z"/>
<path fill="#7A7360" opacity="1.000000" stroke="none" 
	d="
M386.711945,306.124207 
	C384.059387,310.736542 381.085480,315.484436 377.943848,320.525085 
	C370.765533,327.915985 363.185852,334.231110 353.536835,338.270081 
	C354.956024,336.405609 356.357513,333.677765 358.558289,332.632294 
	C367.540955,328.364899 374.298676,322.071533 379.221161,313.416351 
	C380.830414,310.586884 383.957581,308.620728 386.711945,306.124207 
z"/>
<path fill="#626751" opacity="1.000000" stroke="none" 
	d="
M377.462708,180.918564 
	C378.899078,183.003357 380.055878,184.937332 381.361938,187.498688 
	C382.015289,188.738327 382.519379,189.350601 383.023438,189.962875 
	C383.023438,189.962875 383.048218,189.965073 383.058624,190.368042 
	C384.074066,194.182022 385.079102,197.593048 386.084167,201.004089 
	C381.304321,199.851349 378.419495,196.718552 376.954041,192.164642 
	C375.303925,187.036880 373.712769,181.890198 372.064697,176.333649 
	C373.750031,177.532959 375.466553,179.150345 377.462708,180.918564 
z"/>
<path fill="#797462" opacity="1.000000" stroke="none" 
	d="
M256.585938,332.014099 
	C255.649292,330.972351 253.977112,329.383301 254.051025,327.880127 
	C254.538101,317.977081 255.401154,308.092590 256.348419,297.876465 
	C256.589478,308.869415 256.623749,320.187988 256.585938,332.014099 
z"/>
<path fill="#7A7461" opacity="1.000000" stroke="none" 
	d="
M389.921265,206.341354 
	C391.973969,212.067734 393.893646,218.161194 395.804016,224.659729 
	C389.374847,220.391541 387.382721,214.269470 389.921265,206.341354 
z"/>
<path fill="#7A7461" opacity="1.000000" stroke="none" 
	d="
M395.486084,283.081818 
	C393.700623,289.058044 391.640472,295.208313 389.121490,301.679657 
	C388.470642,302.002441 388.278687,302.004089 388.086700,302.005737 
	C388.823944,295.133484 389.516266,288.244171 395.486084,283.081818 
z"/>
<path fill="#7A7360" opacity="1.000000" stroke="none" 
	d="
M277.921509,148.531815 
	C283.409760,146.401337 289.330719,144.278427 295.666260,142.173492 
	C291.280060,147.401886 284.566986,147.272156 277.921509,148.531815 
z"/>
<path fill="#787361" opacity="1.000000" stroke="none" 
	d="
M257.910828,169.646149 
	C260.219757,165.654724 262.846466,161.527420 265.758972,157.225067 
	C264.656708,161.967041 263.623108,167.106430 257.910828,169.646149 
z"/>
<path fill="#797462" opacity="1.000000" stroke="none" 
	d="
M253.066650,253.696365 
	C251.388489,250.586807 249.845413,247.122910 248.135925,243.348083 
	C252.886154,243.709656 254.181015,246.259857 253.066650,253.696365 
z"/>
<path fill="#7A7461" opacity="1.000000" stroke="none" 
	d="
M386.230164,201.277985 
	C385.079102,197.593048 384.074066,194.182022 383.055725,190.380127 
	C383.504089,190.563705 383.965759,191.138168 384.583893,191.942581 
	C386.386292,195.907990 388.032227,199.643448 389.712097,203.745422 
	C388.622742,203.258591 387.499451,202.405228 386.230164,201.277985 
z"/>
<path fill="#7A7360" opacity="1.000000" stroke="none" 
	d="
M350.743927,338.938690 
	C347.587524,340.578918 344.127167,342.139526 340.299377,343.733582 
	C343.434601,342.131073 346.937286,340.495056 350.743927,338.938690 
z"/>
<path fill="#7E7864" opacity="1.000000" stroke="none" 
	d="
M240.883270,239.736053 
	C236.029984,238.010300 238.370758,235.939087 241.195435,233.695343 
	C241.287994,235.455154 241.099426,237.389404 240.883270,239.736053 
z"/>
<path fill="#7E7864" opacity="1.000000" stroke="none" 
	d="
M246.954803,227.440414 
	C247.606873,225.830261 248.572891,224.151260 249.774582,222.240738 
	C249.096436,223.796661 248.182602,225.584106 246.954803,227.440414 
z"/>
<path fill="#797462" opacity="1.000000" stroke="none" 
	d="
M256.683105,294.782104 
	C256.350220,292.996643 256.202423,290.883484 256.128632,288.367310 
	C256.424469,290.127686 256.646301,292.291046 256.683105,294.782104 
z"/>
<path fill="#7E7864" opacity="1.000000" stroke="none" 
	d="
M242.388382,231.984131 
	C243.345673,230.695602 244.650192,229.340073 246.228943,227.849030 
	C245.247314,229.114716 243.991470,230.515915 242.388382,231.984131 
z"/>
<path fill="#7E7864" opacity="1.000000" stroke="none" 
	d="
M249.875519,199.708221 
	C249.828110,198.418396 249.961472,196.772949 250.271362,194.867630 
	C250.317383,196.189377 250.186829,197.770981 249.875519,199.708221 
z"/>
<path fill="#7E7864" opacity="1.000000" stroke="none" 
	d="
M250.112762,211.731232 
	C249.841339,210.853058 249.679886,209.690048 249.603943,208.237579 
	C249.867188,209.114212 250.044952,210.280304 250.112762,211.731232 
z"/>
<path fill="#787361" opacity="1.000000" stroke="none" 
	d="
M269.311279,153.917694 
	C269.858612,153.197678 270.697144,152.376740 271.800507,151.434570 
	C271.244385,152.147827 270.423462,152.982300 269.311279,153.917694 
z"/>
<path fill="#797462" opacity="1.000000" stroke="none" 
	d="
M259.949402,337.494385 
	C259.198456,337.000305 258.325836,336.233276 257.316071,335.205902 
	C258.061890,335.704193 258.944794,336.462799 259.949402,337.494385 
z"/>
<path fill="#787361" opacity="1.000000" stroke="none" 
	d="
M266.344666,156.924408 
	C266.862976,156.137375 267.674744,155.232437 268.752563,154.173721 
	C268.225128,154.948792 267.431580,155.877640 266.344666,156.924408 
z"/>
<path fill="#7A7360" opacity="1.000000" stroke="none" 
	d="
M387.960571,302.300995 
	C388.278687,302.004089 388.470642,302.002441 388.952209,301.998108 
	C388.771088,302.679779 388.300385,303.364075 387.598419,304.259705 
	C387.522919,303.846100 387.678680,303.221161 387.960571,302.300995 
z"/>
<path fill="#7A7461" opacity="1.000000" stroke="none" 
	d="
M382.911346,189.686523 
	C382.519379,189.350601 382.015289,188.738327 381.409851,187.835876 
	C381.805389,188.167175 382.302338,188.788681 382.911346,189.686523 
z"/>
<path fill="#77725F" opacity="1.000000" stroke="none" 
	d="
M196.225220,197.031616 
	C196.157394,197.779312 196.089554,198.526993 195.890930,200.015930 
	C194.804413,211.167999 193.133682,221.575867 193.090927,231.990417 
	C193.046814,242.739792 194.445663,253.509125 195.474701,264.244659 
	C196.390030,273.794006 192.110367,280.240540 183.985352,284.466461 
	C179.422531,286.839630 174.671036,288.850067 170.004532,291.023865 
	C169.269165,291.090240 168.533783,291.156616 167.062347,291.305664 
	C159.971939,292.325470 153.643875,293.719604 147.256775,294.086578 
	C138.850189,294.569519 130.397202,294.244812 121.964172,294.267365 
	C120.905907,294.168854 119.847649,294.070343 118.063889,293.821106 
	C113.191261,292.540771 108.917397,291.741516 104.924698,290.209473 
	C97.745880,287.454834 90.735748,284.260559 84.120453,281.208374 
	C88.818573,282.271912 93.106682,283.204132 97.267418,284.534637 
	C100.858894,285.683136 104.261482,288.352173 107.823837,288.499023 
	C122.337906,289.097382 136.726990,292.517242 151.398132,290.139587 
	C160.414383,288.678375 170.036057,288.912872 177.743607,283.582916 
	C182.534912,280.269623 187.516190,275.476135 189.450974,270.250580 
	C191.651520,264.307281 191.212509,257.097656 190.766525,250.516693 
	C189.327576,229.283661 187.810104,208.133026 192.898148,187.096085 
	C193.976151,182.638977 195.566528,179.696945 200.198669,179.527679 
	C199.804260,180.990570 199.535263,182.115631 199.266266,183.240692 
	C199.266266,183.240692 199.243103,183.463455 199.073502,183.819702 
	C198.011002,188.461166 197.118103,192.746399 196.225220,197.031616 
z"/>
<path fill="#B8A58F" opacity="1.000000" stroke="none" 
	d="
M170.248871,291.230896 
	C174.671036,288.850067 179.422531,286.839630 183.985352,284.466461 
	C192.110367,280.240540 196.390030,273.794006 195.474701,264.244659 
	C194.445663,253.509125 193.046814,242.739792 193.090927,231.990417 
	C193.133682,221.575867 194.804413,211.167999 195.914062,200.391327 
	C196.198090,204.295776 196.565536,208.574951 196.406525,212.834473 
	C196.118149,220.559082 195.008163,228.283127 195.177338,235.986862 
	C195.376755,245.067612 197.006775,254.119202 197.158997,263.197845 
	C197.241989,268.147552 195.526047,273.122864 194.671417,278.095215 
	C194.348801,279.972229 194.167038,281.873505 194.029465,282.930725 
	C188.190903,285.610168 182.604248,288.360168 176.853333,290.707794 
	C174.950989,291.484406 172.625320,291.224121 170.248871,291.230896 
z"/>
<path fill="#B8A58F" opacity="1.000000" stroke="none" 
	d="
M199.681183,183.289413 
	C199.535263,182.115631 199.804260,180.990570 200.381653,179.468842 
	C200.690079,179.072205 201.028122,178.887253 201.341309,178.821869 
	C202.676331,177.994263 203.698181,177.232040 204.946716,176.524323 
	C205.489044,176.601013 205.794693,176.555771 206.399979,176.502060 
	C213.348328,175.663925 214.190231,173.736176 210.185638,168.417664 
	C207.897644,165.378967 205.141861,162.626389 203.269302,159.359482 
	C201.358871,156.026474 199.214844,152.274017 199.032486,148.612595 
	C198.574188,139.410629 199.164993,130.156403 199.335175,120.923126 
	C200.478577,123.958961 202.457092,126.957672 202.594040,130.038254 
	C202.892181,136.744873 202.251770,143.493225 201.959076,150.617172 
	C203.125031,153.494888 204.079758,156.142548 205.584015,158.428635 
	C208.133011,162.302460 211.311935,165.777313 213.700592,169.736877 
	C216.158066,173.810501 214.952133,176.462570 210.672745,178.373749 
	C207.117310,179.961655 203.619446,181.678436 199.681183,183.289413 
z"/>
<path fill="#B8A58F" opacity="1.000000" stroke="none" 
	d="
M83.655136,281.249969 
	C90.735748,284.260559 97.745880,287.454834 104.924698,290.209473 
	C108.917397,291.741516 113.191261,292.540771 117.665207,293.842957 
	C115.421257,293.930145 112.832558,293.999115 110.286240,293.703278 
	C108.668152,293.515289 107.003242,292.152771 105.548248,292.405334 
	C98.391678,293.647522 92.560455,289.822815 86.971962,286.875488 
	C80.703102,283.569336 73.058159,281.728363 69.038086,274.426270 
	C68.875946,274.133698 69.178497,273.816895 69.586365,273.791870 
	C70.685760,274.102142 71.377296,274.437439 72.268921,274.909637 
	C72.756363,275.207336 73.064301,275.298767 73.630180,275.579590 
	C76.899841,277.552826 79.932159,279.267303 83.130127,281.066895 
	C83.295776,281.152039 83.655144,281.249969 83.655136,281.249969 
z"/>
<path fill="#B8A58F" opacity="1.000000" stroke="none" 
	d="
M122.192558,294.508575 
	C130.397202,294.244812 138.850189,294.569519 147.256775,294.086578 
	C153.643875,293.719604 159.971939,292.325470 166.705780,291.404785 
	C165.918427,292.571320 164.908600,294.458893 163.558075,294.746460 
	C156.983871,296.146332 150.347839,297.371338 143.674103,298.143005 
	C139.908218,298.578400 135.968964,298.387848 132.215485,297.796234 
	C128.873611,297.269440 125.679993,295.802063 122.192558,294.508575 
z"/>
<path fill="#B8A58F" opacity="1.000000" stroke="none" 
	d="
M196.473236,196.809708 
	C197.118103,192.746399 198.011002,188.461166 199.120026,183.921570 
	C200.391403,188.364014 200.132477,192.794891 196.473236,196.809708 
z"/>
<path fill="#B8A58F" opacity="1.000000" stroke="none" 
	d="
M120.026520,297.904633 
	C118.928246,298.674805 117.669182,299.270508 116.410110,299.866211 
	C116.202003,299.221130 115.993896,298.576050 115.785797,297.930939 
	C117.145767,297.864044 118.505745,297.797119 120.026520,297.904633 
z"/>
<path fill="#606A59" opacity="1.000000" stroke="none" 
	d="
M73.392845,275.320831 
	C73.064301,275.298767 72.756363,275.207336 72.206253,274.549957 
	C70.139297,267.343933 57.378658,253.366821 50.012142,250.031342 
	C49.839130,249.746964 49.720306,249.441513 49.627380,248.465210 
	C47.672890,240.835236 46.682377,233.397827 43.557827,227.003174 
	C40.421402,220.584213 38.820251,214.246429 39.217800,207.380768 
	C40.045734,193.082184 34.968544,178.481003 41.450329,164.440689 
	C42.169266,162.883377 41.655571,160.800140 41.974155,159.007111 
	C43.077141,152.799408 43.112133,146.043732 45.750519,140.552094 
	C49.583839,132.573257 54.497433,125.111481 58.450256,117.069649 
	C62.107838,109.628471 67.797325,103.049698 73.283844,96.687790 
	C77.534607,91.758789 82.539955,87.332428 87.763359,83.421951 
	C97.876907,75.850487 109.670448,72.594200 122.127625,71.218636 
	C135.628723,69.727798 149.182404,68.453468 161.809692,74.697540 
	C168.858749,78.183235 175.261459,82.983261 181.906509,87.266922 
	C182.534714,87.671890 182.873718,88.590149 183.242065,89.322853 
	C185.250763,93.318459 187.275360,97.307259 189.205002,101.341209 
	C196.239258,116.046410 199.108795,131.391220 194.899902,147.369507 
	C193.717590,151.857956 193.905777,155.427612 197.293839,158.183090 
	C203.180099,162.970383 205.664001,169.150894 206.090363,176.443100 
	C205.794693,176.555771 205.489044,176.601013 204.602249,176.565308 
	C203.030106,177.330261 202.029114,178.108749 201.028122,178.887253 
	C201.028122,178.887253 200.690079,179.072205 200.507080,179.131027 
	C195.566528,179.696945 193.976151,182.638977 192.898148,187.096085 
	C187.810104,208.133026 189.327576,229.283661 190.766525,250.516693 
	C191.212509,257.097656 191.651520,264.307281 189.450974,270.250580 
	C187.516190,275.476135 182.534912,280.269623 177.743607,283.582916 
	C170.036057,288.912872 160.414383,288.678375 151.398132,290.139587 
	C136.726990,292.517242 122.337906,289.097382 107.823837,288.499023 
	C104.261482,288.352173 100.858894,285.683136 97.267418,284.534637 
	C93.106682,283.204132 88.818573,282.271912 84.120453,281.208374 
	C83.655144,281.249969 83.295776,281.152039 82.961060,280.784912 
	C79.548508,278.718811 76.470673,277.019836 73.392845,275.320831 
z"/>
<path fill="#77725F" opacity="1.000000" stroke="none" 
	d="
M206.399979,176.502060 
	C205.664001,169.150894 203.180099,162.970383 197.293839,158.183090 
	C193.905777,155.427612 193.717590,151.857956 194.899902,147.369507 
	C199.108795,131.391220 196.239258,116.046410 189.205002,101.341209 
	C187.275360,97.307259 185.250763,93.318459 183.242065,89.322853 
	C182.873718,88.590149 182.534714,87.671890 181.906509,87.266922 
	C175.261459,82.983261 168.858749,78.183235 161.809692,74.697540 
	C149.182404,68.453468 135.628723,69.727798 122.127625,71.218636 
	C109.670448,72.594200 97.876907,75.850487 87.763359,83.421951 
	C82.539955,87.332428 77.534607,91.758789 73.283844,96.687790 
	C67.797325,103.049698 62.107838,109.628471 58.450256,117.069649 
	C54.497433,125.111481 49.583839,132.573257 45.750519,140.552094 
	C43.112133,146.043732 43.077141,152.799408 41.974155,159.007111 
	C41.655571,160.800140 42.169266,162.883377 41.450329,164.440689 
	C34.968544,178.481003 40.045734,193.082184 39.217800,207.380768 
	C38.820251,214.246429 40.421402,220.584213 43.557827,227.003174 
	C46.682377,233.397827 47.672890,240.835236 49.606499,248.219315 
	C46.533562,242.613388 43.453209,236.603577 40.150299,229.975357 
	C39.841755,228.925110 39.755768,228.493286 39.669781,228.061447 
	C37.893288,218.935501 36.116798,209.809570 34.203259,199.927277 
	C34.000229,197.786743 33.934250,196.402527 33.947346,194.642685 
	C33.972603,193.506042 33.918785,192.745056 33.922729,191.570465 
	C33.979179,189.766815 33.977863,188.376755 33.976547,186.986710 
	C34.901875,180.412277 35.893871,173.846405 36.740685,167.261871 
	C39.952034,142.291397 49.366718,119.843987 64.939590,100.172707 
	C76.827164,85.156616 92.316048,75.181908 110.917770,70.206161 
	C115.416779,69.002724 119.875244,67.647736 125.078270,66.228073 
	C126.856056,66.021484 127.907936,65.949265 129.425568,65.959824 
	C142.548981,65.627853 155.153488,65.864357 166.603653,72.223198 
	C171.910339,75.170280 176.841187,78.794128 181.942429,82.111168 
	C182.101517,82.369453 182.296661,82.596802 182.821136,83.251038 
	C187.243561,91.235756 191.462738,98.715385 195.454239,106.314598 
	C196.899734,109.066582 197.800400,112.104729 198.949677,115.012299 
	C199.033920,116.703903 199.118164,118.395515 199.268784,120.505127 
	C199.164993,130.156403 198.574188,139.410629 199.032486,148.612595 
	C199.214844,152.274017 201.358871,156.026474 203.269302,159.359482 
	C205.141861,162.626389 207.897644,165.378967 210.185638,168.417664 
	C214.190231,173.736176 213.348328,175.663925 206.399979,176.502060 
z"/>
<path fill="#CDB39C" opacity="1.000000" stroke="none" 
	d="
M33.828548,186.603821 
	C33.977863,188.376755 33.979179,189.766815 33.756676,191.725922 
	C33.644661,193.202759 33.756466,194.110550 33.868271,195.018326 
	C33.934250,196.402527 34.000229,197.786743 34.031593,199.585983 
	C33.599396,203.455902 33.481167,206.976883 32.686066,210.337723 
	C32.290169,212.011124 30.654024,213.391129 29.578907,214.903854 
	C28.706112,213.492325 27.185034,212.135574 27.060411,210.660812 
	C25.756886,195.235046 24.349813,179.788696 28.288055,164.482376 
	C28.821125,162.410538 28.471590,160.092987 29.109621,158.071960 
	C29.765694,155.993774 31.130829,154.139435 32.681793,152.311676 
	C34.115646,153.624176 35.053398,154.812164 35.991146,156.000137 
	C32.412086,165.858978 32.167530,175.972748 33.828548,186.603821 
z"/>
<path fill="#D0B09E" opacity="1.000000" stroke="none" 
	d="
M109.949028,67.174362 
	C107.047974,68.160728 103.931145,68.754868 101.287483,70.209145 
	C94.178917,74.119568 87.389458,78.622597 80.197411,82.359352 
	C78.551750,83.214386 75.795135,81.931213 73.549820,81.632118 
	C74.495346,79.955582 75.034424,77.716393 76.451546,76.692688 
	C86.594879,69.365356 97.092773,62.689346 110.534058,62.296223 
	C110.604912,64.179604 110.276970,65.676987 109.949028,67.174362 
z"/>
<path fill="#D0B1A0" opacity="1.000000" stroke="none" 
	d="
M36.084114,155.637024 
	C35.053398,154.812164 34.115646,153.624176 32.994534,152.145493 
	C31.016493,142.705124 34.695415,135.003220 39.206684,127.501434 
	C41.471001,123.736099 43.633919,119.909790 46.714027,114.612480 
	C47.516144,117.220581 48.914028,119.305328 48.358006,120.336304 
	C42.417660,131.350845 39.400951,143.341095 36.084114,155.637024 
z"/>
<path fill="#CCB59B" opacity="1.000000" stroke="none" 
	d="
M110.266449,67.266380 
	C110.276970,65.676987 110.604912,64.179604 110.969238,62.298607 
	C120.203651,59.985474 129.342361,57.629513 138.629074,56.337433 
	C142.316681,55.824375 145.868530,60.476059 150.626999,58.413700 
	C150.982086,59.545193 150.973053,60.317928 150.577820,61.128479 
	C144.962616,61.234322 139.726532,61.494450 134.507050,61.302780 
	C131.031586,61.175152 128.385773,61.394585 128.959808,65.877045 
	C127.907936,65.949265 126.856056,66.021484 125.408943,66.064949 
	C121.161369,64.689865 117.427277,63.926876 113.871475,67.004669 
	C113.186630,67.597443 111.700409,67.264366 110.266449,67.266380 
z"/>
<path fill="#CEB29E" opacity="1.000000" stroke="none" 
	d="
M39.386642,227.903717 
	C39.755768,228.493286 39.841755,228.925110 39.949394,229.686798 
	C40.838131,235.129425 41.724838,240.238998 42.556835,245.357483 
	C42.737846,246.471054 42.722919,247.616470 42.798233,248.747223 
	C41.512505,248.388763 39.882984,248.398987 39.016457,247.590973 
	C37.467735,246.146820 35.853336,244.387085 35.196400,242.444733 
	C33.194931,236.527054 31.528219,230.486694 30.005030,224.425278 
	C29.726679,223.317612 30.736052,221.886353 31.150993,220.604477 
	C32.481964,221.323349 34.032101,221.811142 35.091667,222.816162 
	C36.616108,224.262131 37.783642,226.084366 39.386642,227.903717 
z"/>
<path fill="#CFB39B" opacity="1.000000" stroke="none" 
	d="
M150.964020,61.090660 
	C150.973053,60.317928 150.982086,59.545193 150.994949,58.386078 
	C158.777237,60.562698 166.555710,63.125698 174.675293,65.822861 
	C172.915497,66.969955 170.814560,67.982880 167.963806,68.886337 
	C162.259979,67.469582 157.260651,66.301300 152.397705,64.714897 
	C151.609573,64.457794 151.426666,62.345451 150.964020,61.090660 
z"/>
<path fill="#77725F" opacity="1.000000" stroke="none" 
	d="
M50.102924,250.362427 
	C57.378658,253.366821 70.139297,267.343933 72.006149,274.413055 
	C71.377296,274.437439 70.685760,274.102142 69.737701,273.633545 
	C63.052021,265.898010 56.622864,258.295776 50.102924,250.362427 
z"/>
<path fill="#B8A58F" opacity="1.000000" stroke="none" 
	d="
M150.577820,61.128479 
	C151.426666,62.345451 151.609573,64.457794 152.397705,64.714897 
	C157.260651,66.301300 162.259979,67.469582 167.565063,68.900452 
	C172.518448,73.168518 177.120758,77.312988 181.832733,81.784317 
	C176.841187,78.794128 171.910339,75.170280 166.603653,72.223198 
	C155.153488,65.864357 142.548981,65.627853 129.425568,65.959824 
	C128.385773,61.394585 131.031586,61.175152 134.507050,61.302780 
	C139.726532,61.494450 144.962616,61.234322 150.577820,61.128479 
z"/>
<path fill="#B8A58F" opacity="1.000000" stroke="none" 
	d="
M199.068390,114.714424 
	C197.800400,112.104729 196.899734,109.066582 195.454239,106.314598 
	C191.462738,98.715385 187.243561,91.235756 183.004211,83.382538 
	C185.651169,85.976822 188.561264,88.770874 191.116302,91.858734 
	C193.100128,94.256256 194.640839,97.020432 196.654846,100.249298 
	C196.995468,102.246651 197.059753,103.616364 197.183212,105.317856 
	C197.796951,107.093323 198.351517,108.537003 198.906097,109.980682 
	C198.999771,111.459305 199.093430,112.937927 199.068390,114.714424 
z"/>
<path fill="#CFB1A0" opacity="1.000000" stroke="none" 
	d="
M197.124054,104.986069 
	C197.059753,103.616364 196.995468,102.246651 196.907684,100.468155 
	C198.733551,100.006676 200.582901,99.953995 202.791473,99.937119 
	C203.464630,101.376266 203.778595,102.779594 203.871429,104.731682 
	C201.474884,105.182312 199.299469,105.084190 197.124054,104.986069 
z"/>
<path fill="#CAAE9C" opacity="1.000000" stroke="none" 
	d="
M197.183228,105.317856 
	C199.299469,105.084190 201.474884,105.182312 203.897156,105.095337 
	C205.064819,108.001411 205.985641,111.092583 206.907928,114.595383 
	C204.464523,113.404152 202.019669,111.801285 199.240448,110.089554 
	C198.351517,108.537003 197.796951,107.093323 197.183228,105.317856 
z"/>
<path fill="#77725F" opacity="1.000000" stroke="none" 
	d="
M201.341309,178.821869 
	C202.029114,178.108749 203.030106,177.330261 204.375565,176.510773 
	C203.698181,177.232040 202.676331,177.994263 201.341309,178.821869 
z"/>
<path fill="#77725F" opacity="1.000000" stroke="none" 
	d="
M73.630180,275.579590 
	C76.470673,277.019836 79.548508,278.718811 82.795410,280.699799 
	C79.932159,279.267303 76.899841,277.552826 73.630180,275.579590 
z"/>
<path fill="#B8A58F" opacity="1.000000" stroke="none" 
	d="
M33.947350,194.642685 
	C33.756466,194.110550 33.644661,193.202759 33.698910,192.139526 
	C33.918785,192.745056 33.972603,193.506042 33.947350,194.642685 
z"/>
</svg>